<svg width="355" height="64" xmlns="http://www.w3.org/2000/svg"><g fill-rule="nonzero" fill="none"><path d="M32 25.8c-3.4 0-6.2 2.8-6.2 6.2 0 3.4 2.8 6.2 6.2 6.2 3.4 0 6.2-2.8 6.2-6.2 0-3.4-2.8-6.2-6.2-6.2z" fill="#FD1655"/><path d="M64 32c0 17.7-14.3 32-32 32S0 49.7 0 32 14.3 0 32 0s32 14.3 32 32zM32 7.5C18.5 7.5 7.5 18.5 7.5 32s11 24.5 24.5 24.5 24.5-11 24.5-24.5S45.5 7.5 32 7.5z" fill="#FD1655"/><path d="M24.8 25.4c.5-.6 1.1-1.1 1.8-1.5-4.5-6.9-7.4-9.4-8.8-8.6 0 0-.7.5-1.2 1-2.4 2.4-2.2 3.6-2.2 3.6 1.1-1.2 4.5.2 10.4 5.5zm3-2.2c.7-.3 1.4-.6 2.2-.7-1.5-8.1-3.2-11.6-4.9-11.4 0 0-.8.2-1.5.4-3.1 1.3-3.4 2.5-3.4 2.5 1.6-.6 4.2 2 7.6 9.2zM53 27.7c0 1.7-3.4 3.1-11.3 3.5v.8c0 .5-.1 1.1-.1 1.6 8 1.7 11.8 1.4 12.2-.2 0 0 .2-.8.2-1.6 0-3.4-1-4.1-1-4.1zm-21.5-5.4h.5c.6 0 1.2.1 1.8.2 1.8-8.1 1.5-12-.2-12.4 0 0-.8-.2-1.6-.2-3.4 0-4.1 1-4.1 1 1.7-.1 3.1 3.4 3.6 11.4zm9.2 5.3c.4.7.6 1.4.8 2.2 8.1-1.5 11.5-3.2 11.3-4.9 0 0-.2-.8-.4-1.5-1.3-3.1-2.5-3.4-2.5-3.4.6 1.5-2 4.2-9.2 7.6zm-3.4-3.8c4.7-6.8 5.9-10.5 4.6-11.5 0 0-.7-.5-1.4-.8-3.1-1.3-4.2-.6-4.2-.6 1.5.6 1.5 4.4-1.1 11.9.7.2 1.4.6 2.1 1zm-15 8.6V32c0-.7.1-1.3.2-1.9-7.9-1.7-11.8-1.4-12.2.2 0 0-.2.8-.2 1.6 0 3.4 1 4.1 1 4.1 0-1.7 3.3-3.1 11.2-3.6zm16.1-7.8c.6.5 1.1 1.1 1.6 1.7 6.9-4.5 9.5-7.4 8.6-8.9 0 0-.5-.7-1-1.2C45.2 13.8 44 14 44 14c1.2 1.3-.3 4.7-5.6 10.6zm-15.6 4.1c.3-.7.6-1.5 1.1-2.1-6.7-4.7-10.4-5.8-11.4-4.5 0 0-.5.7-.8 1.4-1.3 3.1-.6 4.2-.6 4.2.6-1.6 4.3-1.6 11.7 1zm13.6 12c-.7.4-1.5.6-2.3.8 1.5 7.9 3.2 11.3 4.8 11.1 0 0 .8-.2 1.5-.4 3.1-1.3 3.4-2.5 3.4-2.5-1.5.6-4-2-7.4-9zm3-2.4c-.5.6-1.1 1.1-1.8 1.6 4.4 6.8 7.3 9.2 8.7 8.4 0 0 .7-.5 1.2-1 2.4-2.4 2.2-3.6 2.2-3.6-1.1 1.2-4.4-.1-10.3-5.4zm1.9-3.3c-.2.8-.6 1.5-1 2.2 6.7 4.6 10.3 5.8 11.3 4.5 0 0 .5-.7.8-1.4 1.3-3.1.6-4.2.6-4.2-.6 1.5-4.3 1.5-11.7-1.1zm-18.1 1.2c-.3-.7-.6-1.5-.8-2.3-8 1.5-11.3 3.2-11.1 4.8 0 0 .2.8.4 1.5 1.3 3.1 2.5 3.4 2.5 3.4-.6-1.5 2-4 9-7.4zm9.5 5.5H32c-.6 0-1.2-.1-1.8-.2-1.7 7.9-1.4 11.6.2 12.1 0 0 .8.2 1.6.2 3.4 0 4.1-1 4.1-1-1.6 0-3-3.3-3.4-11.1zm-7.2-2.5c-.6-.5-1.1-1.1-1.6-1.8-6.8 4.4-9.2 7.3-8.4 8.7 0 0 .5.7 1 1.2 2.4 2.4 3.6 2.2 3.6 2.2-1.2-1.1.2-4.4 5.4-10.3zm1.2 1c-4.6 6.6-5.7 10.2-4.4 11.2 0 0 .7.5 1.4.8 3.1 1.3 4.2.6 4.2.6-1.5-.6-1.5-4.2 1-11.6-.9-.2-1.6-.6-2.2-1z" fill="#FD1655"/><path d="M97.2 18.9c1.9 1.2 3 2.7 3 4.5 0 2.1-1.5 3.3-3.4 3.3s-3.5-1-3.5-2.9c0-1.7 1.2-2.8 2.7-3.2-.8-1.4-3.3-2-5.7-2-4.2 0-9.1 2.8-9.1 13.8 0 10.3 4.3 13.8 9.2 13.8 3.3 0 7-1.6 9.3-6l1.2.4c-1.3 3.8-4.9 8.1-11.7 8.1-7.9 0-14.1-5.8-14.1-15.4 0-9.5 6.1-16.1 14.9-16.1 2.5-.2 5.2.5 7.2 1.7zM133.7 32.8c0 11.1-6.4 15.7-14.5 15.7s-14.5-4.6-14.5-15.7c0-11.2 6.4-15.8 14.5-15.8s14.5 4.7 14.5 15.8zm-22.8 0c0 10.1 3.5 14.2 8.3 14.2 4.9 0 8.3-4.1 8.3-14.2s-3.4-14.2-8.3-14.2c-4.8 0-8.3 4.1-8.3 14.2zM165.5 19.2c1.6 1.6 2.2 3.7 2.2 7.6v15.5c0 3.2 1.3 4.2 4.9 4.2v1.2c-1.5-.1-4.9-.2-7.7-.2s-5.8.2-7.1.2v-1.2c3.1 0 4.2-.9 4.2-4.2V25.6c0-3.6-.6-5.7-5.2-5.7-5.4 0-8.9 3.6-8.9 9.6v12.9c0 3.2 1.2 4.2 4.2 4.2v1.2c-1.3-.1-4.4-.2-7.2-.2s-6.2.2-7.7.2v-1.2c3.5 0 4.9-.9 4.9-4.2V24.2c0-3.5-1.2-5.1-4.9-5.1v-1.2c1.3.1 2.7.2 4 .2 2.5 0 4.8-.2 6.6-.8V24c2.2-5.2 6.5-7 10.9-7 3.3 0 5.3.8 6.8 2.2zM193.8 17.9v1.7h-9.4v22c0 3.7 1.5 4.9 4.1 4.9 2.6 0 4.4-1.7 5.8-6.2l1.2.3c-.9 4.5-3.1 8-8.3 8-2.9 0-4.6-.7-6-1.9-1.9-1.7-2.5-4-2.5-8.1v-19h-6.1v-1.7h6.1V9c2.1-.1 4.1-.3 5.7-.8v9.7h9.4zM223.1 40.8c-1.4 3.9-5.6 7.8-11.9 7.8-9.3 0-14.7-6.1-14.7-15 0-10.2 5.7-16.5 14.4-16.5 7.5 0 11.9 4 11.9 12.7h-19.9c-.2 1.1-.2 2.4-.2 3.7 0 8 4.9 12.6 9.8 12.6 3.8 0 7.2-1.5 9.4-5.8l1.2.5zm-20.3-12.3h13.9c.2-5.7-1.8-9.3-6-9.3-3.8 0-7.2 2-7.9 9.3zM254.6 19.2c1.6 1.6 2.2 3.7 2.2 7.6v15.5c0 3.2 1.3 4.2 4.9 4.2v1.2c-1.5-.1-4.9-.2-7.7-.2s-5.8.2-7.1.2v-1.2c3.1 0 4.2-.9 4.2-4.2V25.6c0-3.6-.6-5.7-5.2-5.7-5.4 0-8.9 3.6-8.9 9.6v12.9c0 3.2 1.2 4.2 4.2 4.2v1.2c-1.3-.1-4.4-.2-7.2-.2s-6.2.2-7.7.2v-1.2c3.5 0 4.9-.9 4.9-4.2V24.2c0-3.5-1.2-5.1-4.9-5.1v-1.2c1.3.1 2.7.2 4 .2 2.5 0 4.8-.2 6.6-.8V24c2.2-5.2 6.5-7 10.9-7 3.3 0 5.4.8 6.8 2.2zM296.9 44c0 5.4-.5 10.7-3.4 14-2 2.4-5 3.5-7.7 3.5-1.4 0-2.7-.3-3.6-.9-.9-.6-1.4-1.5-1.4-2.7 0-1.8 1.3-3 3.3-3 1.9 0 3.3.8 3.3 2.8 0 1.3-.8 2.3-2.4 2.8.4.1.8.1 1.1.1 1.4 0 2.6-.4 3.6-1.3.9-1 1.5-2.5 1.5-4.9V24.2c0-3.5-1.2-5.1-4.9-5.1v-1.2c1.3.1 2.7.2 4 .2 2.5 0 4.8-.2 6.6-.8V44zm.6-36.6c0 2-1.8 3.7-4.1 3.7-2.2 0-4.1-1.7-4.1-3.7s1.9-3.7 4.1-3.7c2.2 0 4.1 1.6 4.1 3.7z" fill="#444"/><path d="M282.9 17.9v1.7h-9.4v22c0 3.7 1.5 4.9 4.1 4.9 2.6 0 4.4-1.7 5.8-6.2l1.2.3c-.9 4.5-3.1 8-8.3 8-2.9 0-4.6-.7-6-1.9-1.9-1.7-2.5-4-2.5-8.1v-19h-6.1v-1.7h6.1V9c2.1-.1 4.1-.3 5.7-.8v9.7h9.4zM353.2 17.9v1.7h-9.4v22c0 3.7 1.5 4.9 4.1 4.9 2.6 0 4.4-1.7 5.8-6.2l1.2.3c-.9 4.5-3.1 8-8.3 8-2.9 0-4.6-.7-6-1.9-1.9-1.7-2.5-4-2.5-8.1v-19H332v-1.7h6.1V9c2.1-.1 4.1-.3 5.7-.8v9.7h9.4zM330.2 40.8c-1.4 3.9-5.6 7.8-11.9 7.8-9.3 0-14.7-6.1-14.7-15 0-10.2 5.7-16.5 14.4-16.5 7.5 0 11.9 4 11.9 12.7H310c-.2 1.1-.2 2.4-.2 3.7 0 8 4.9 12.6 9.8 12.6 3.8 0 7.2-1.5 9.4-5.8l1.2.5zm-20.3-12.3h13.9c.2-5.7-1.8-9.3-6-9.3-3.8 0-7.2 2-7.9 9.3z" fill="#444"/></g></svg>