<?xml version="1.0" encoding="utf-8"?>
<!-- Generator: Adobe Illustrator 19.1.0, SVG Export Plug-In . SVG Version: 6.00 Build 0)  -->
<svg version="1.1" id="Layer_1" xmlns="http://www.w3.org/2000/svg" xmlns:xlink="http://www.w3.org/1999/xlink" x="0px" y="0px"
	 viewBox="0 0 354.9 64" style="enable-background:new 0 0 354.9 64;" xml:space="preserve">
<style type="text/css">
	.st0{fill:#444444;}
	.st1{fill:#FD1655;}
	.st2{fill:#FFFFFF;}
</style>
<symbol  id="ContentJet_2_" viewBox="-140 -29 280 58">
	<path class="st0" d="M-117.7,13.7c1.9-1.2,3-2.7,3-4.5c0-2.1-1.5-3.3-3.4-3.3c-1.9,0-3.5,1-3.5,2.9c0,1.7,1.2,2.8,2.7,3.2
		c-0.8,1.4-3.3,2-5.7,2c-4.2,0-9.1-2.8-9.1-13.8c0-10.3,4.3-13.8,9.2-13.8c3.3,0,7,1.6,9.3,6l1.2-0.4c-1.3-3.8-4.9-8.1-11.7-8.1
		c-7.9,0-14.1,5.8-14.1,15.4c0,9.5,6.1,16.1,14.9,16.1C-122.4,15.6-119.8,15-117.7,13.7z"/>
	<path class="st0" d="M-81.2-0.2c0-11.1-6.4-15.7-14.5-15.7c-8.1,0-14.5,4.6-14.5,15.7c0,11.2,6.4,15.8,14.5,15.8
		C-87.6,15.6-81.2,11-81.2-0.2z M-104-0.2c0-10.1,3.5-14.2,8.3-14.2c4.9,0,8.3,4.1,8.3,14.2c0,10.1-3.4,14.2-8.3,14.2
		C-100.5,14.1-104,9.9-104-0.2z"/>
	<path class="st0" d="M-49.4,13.4c1.6-1.6,2.2-3.7,2.2-7.6V-9.7c0-3.2,1.3-4.2,4.9-4.2v-1.2c-1.5,0.1-4.9,0.2-7.7,0.2
		c-2.8,0-5.8-0.2-7.1-0.2v1.2c3.1,0,4.2,0.9,4.2,4.2V7.1c0,3.6-0.6,5.7-5.2,5.7c-5.4,0-8.9-3.6-8.9-9.6V-9.7c0-3.2,1.2-4.2,4.2-4.2
		v-1.2c-1.3,0.1-4.4,0.2-7.2,0.2c-2.8,0-6.2-0.2-7.7-0.2v1.2c3.5,0,4.9,0.9,4.9,4.2V8.5c0,3.5-1.2,5.1-4.9,5.1v1.2
		c1.3-0.1,2.7-0.2,4-0.2c2.5,0,4.8,0.2,6.6,0.8V8.6c2.2,5.2,6.5,7,10.9,7C-53,15.6-50.9,14.8-49.4,13.4z"/>
	<path class="st0" d="M-21.1,14.7v-1.7h-9.4v-22c0-3.7,1.5-4.9,4.1-4.9c2.6,0,4.4,1.7,5.8,6.2l1.2-0.3c-0.9-4.5-3.1-8-8.3-8
		c-2.9,0-4.6,0.7-6,1.9c-1.9,1.7-2.5,4-2.5,8.1v18.9h-6.1v1.7h6.1v8.9c2.1,0.1,4.1,0.3,5.7,0.8v-9.7H-21.1z"/>
	<path class="st0" d="M8.2-8.1C6.8-12,2.6-15.9-3.8-15.9c-9.3,0-14.7,6.1-14.7,15c0,10.2,5.7,16.5,14.4,16.5c7.5,0,11.9-4,11.9-12.7
		H-12c-0.2-1.1-0.2-2.4-0.2-3.7c0-8,4.9-12.6,9.8-12.6c3.8,0,7.2,1.5,9.4,5.8L8.2-8.1z M-12.1,4.2H1.8c0.2,5.7-1.8,9.3-6,9.3
		C-8.1,13.5-11.4,11.5-12.1,4.2z"/>
	<path class="st0" d="M39.7,13.4c1.6-1.6,2.2-3.7,2.2-7.6V-9.7c0-3.2,1.3-4.2,4.9-4.2v-1.2c-1.5,0.1-4.9,0.2-7.7,0.2
		c-2.8,0-5.8-0.2-7.1-0.2v1.2c3.1,0,4.2,0.9,4.2,4.2V7.1c0,3.6-0.6,5.7-5.2,5.7c-5.4,0-8.9-3.6-8.9-9.6V-9.7c0-3.2,1.2-4.2,4.2-4.2
		v-1.2c-1.3,0.1-4.4,0.2-7.2,0.2c-2.8,0-6.2-0.2-7.7-0.2v1.2c3.5,0,4.9,0.9,4.9,4.2V8.5c0,3.5-1.2,5.1-4.9,5.1v1.2
		c1.3-0.1,2.7-0.2,4-0.2c2.5,0,4.8,0.2,6.6,0.8V8.6c2.2,5.2,6.5,7,10.9,7C36.2,15.6,38.2,14.8,39.7,13.4z"/>
	<path class="st1" d="M82-11.4c0-5.4-0.5-10.7-3.4-14c-2-2.4-5-3.5-7.7-3.5c-1.4,0-2.7,0.3-3.6,0.9c-0.9,0.6-1.4,1.5-1.4,2.7
		c0,1.8,1.3,3,3.3,3c1.9,0,3.3-0.8,3.3-2.8c0-1.3-0.8-2.3-2.4-2.8c0.4-0.1,0.8-0.1,1.1-0.1c1.4,0,2.6,0.4,3.6,1.3
		c0.9,1,1.5,2.5,1.5,4.9V8.5c0,3.5-1.2,5.1-4.9,5.1v1.2c1.3-0.1,2.7-0.2,4-0.2c2.5,0,4.8,0.2,6.6,0.8V-11.4z M82.6,25.3
		c0-2-1.8-3.7-4.1-3.7c-2.2,0-4.1,1.7-4.1,3.7c0,2,1.9,3.7,4.1,3.7C80.7,29,82.6,27.3,82.6,25.3z"/>
	<path class="st0" d="M68,14.7v-1.7h-9.4v-22c0-3.7,1.5-4.9,4.1-4.9c2.6,0,4.4,1.7,5.8,6.2l1.2-0.3c-0.9-4.5-3.1-8-8.3-8
		c-2.9,0-4.6,0.7-6,1.9c-1.9,1.7-2.5,4-2.5,8.1v18.9h-6.1v1.7h6.1v8.9c2.1,0.1,4.1,0.3,5.7,0.8v-9.7H68z"/>
	<path class="st1" d="M138.3,14.7v-1.7h-9.4v-22c0-3.7,1.5-4.9,4.1-4.9c2.6,0,4.4,1.7,5.8,6.2l1.2-0.3c-0.9-4.5-3.1-8-8.3-8
		c-2.9,0-4.6,0.7-6,1.9c-1.9,1.7-2.5,4-2.5,8.1v18.9H117v1.7h6.1v8.9c2.1,0.1,4.1,0.3,5.7,0.8v-9.7H138.3z"/>
	<path class="st1" d="M115.3-8.1c-1.4-3.9-5.6-7.8-11.9-7.8c-9.3,0-14.7,6.1-14.7,15c0,10.2,5.7,16.5,14.4,16.5
		c7.5,0,11.9-4,11.9-12.7H95.1c-0.2-1.1-0.2-2.4-0.2-3.7c0-8,4.9-12.6,9.8-12.6c3.8,0,7.2,1.5,9.4,5.8L115.3-8.1z M95,4.2h13.9
		c0.2,5.7-1.8,9.3-6,9.3C99,13.5,95.7,11.5,95,4.2z"/>
</symbol>
<symbol  id="Turbine_2_" viewBox="-32 -32 64 64">
	<path class="st1" d="M0,6.2c-3.4,0-6.2-2.8-6.2-6.2S-3.4-6.2,0-6.2S6.2-3.4,6.2,0S3.4,6.2,0,6.2z"/>
	<path class="st1" d="M32,0c0-17.7-14.3-32-32-32S-32-17.7-32,0s14.3,32,32,32S32,17.7,32,0z M0,24.5c-13.5,0-24.5-11-24.5-24.5
		s11-24.5,24.5-24.5S24.5-13.5,24.5,0S13.5,24.5,0,24.5z"/>
	<path class="st1" d="M-7.2,6.6c0.5,0.6,1.1,1.1,1.8,1.5c-4.5,6.9-7.4,9.4-8.8,8.6c0,0-0.7-0.5-1.2-1c-2.4-2.4-2.2-3.6-2.2-3.6
		C-16.5,13.3-13.1,11.9-7.2,6.6z M-4.2,8.8C-3.5,9.1-2.7,9.4-2,9.6c-1.5,8.1-3.2,11.6-4.9,11.4c0,0-0.8-0.2-1.5-0.4
		c-3.1-1.3-3.4-2.5-3.4-2.5C-10.2,18.6-7.6,16-4.2,8.8z M21,4.3c0-1.7-3.4-3.1-11.3-3.5c0-0.3,0-0.5,0-0.8c0-0.5-0.1-1.1-0.1-1.6
		c8-1.7,11.8-1.4,12.2,0.2c0,0,0.2,0.8,0.2,1.6C22,3.6,21,4.3,21,4.3z M-0.5,9.7c0.2,0,0.4,0,0.5,0c0.6,0,1.2-0.1,1.8-0.2
		c1.8,8.1,1.5,12-0.2,12.4c0,0-0.8,0.2-1.6,0.2c-3.4,0-4.1-1-4.1-1C-2.4,21.2-1,17.7-0.5,9.7z M8.7,4.4C9.1,3.7,9.3,3,9.5,2.2
		C17.6,3.7,21,5.4,20.8,7.1c0,0-0.2,0.8-0.4,1.5c-1.3,3.1-2.5,3.4-2.5,3.4C18.5,10.5,15.9,7.8,8.7,4.4z M5.3,8.2
		C10,15,11.2,18.7,9.9,19.7c0,0-0.7,0.5-1.4,0.8c-3.1,1.3-4.2,0.6-4.2,0.6c1.5-0.6,1.5-4.4-1.1-11.9C3.9,9,4.6,8.6,5.3,8.2z
		 M-9.7-0.4c0,0.1,0,0.3,0,0.4c0,0.7,0.1,1.3,0.2,1.9c-7.9,1.7-11.8,1.4-12.2-0.2c0,0-0.2-0.8-0.2-1.6c0-3.4,1-4.1,1-4.1
		C-20.9-2.3-17.6-0.9-9.7-0.4z M6.4,7.4C7,6.8,7.5,6.3,8,5.6c6.9,4.5,9.5,7.4,8.6,8.9c0,0-0.5,0.7-1,1.2c-2.4,2.4-3.6,2.2-3.6,2.2
		C13.2,16.7,11.7,13.3,6.4,7.4z M-9.2,3.3c0.3,0.7,0.6,1.5,1.1,2.1c-6.7,4.7-10.4,5.8-11.4,4.5c0,0-0.5-0.7-0.8-1.4
		c-1.3-3.1-0.6-4.2-0.6-4.2C-20.3,5.9-16.6,5.9-9.2,3.3z M4.4-8.7C3.7-9.1,2.9-9.3,2.1-9.5C3.6-17.4,5.3-20.8,7-20.6
		c0,0,0.8,0.2,1.5,0.4c3.1,1.3,3.4,2.5,3.4,2.5C10.3-18.3,7.8-15.7,4.4-8.7z M7.4-6.3C6.9-6.9,6.3-7.5,5.6-8
		c4.4-6.8,7.3-9.2,8.7-8.4c0,0,0.7,0.5,1.2,1c2.4,2.4,2.2,3.6,2.2,3.6C16.6-12.9,13.3-11.6,7.4-6.3z M9.3-3C9-3.8,8.7-4.5,8.3-5.2
		c6.7-4.6,10.3-5.8,11.3-4.5c0,0,0.5,0.7,0.8,1.4C21.7-5.1,21-4.1,21-4.1C20.4-5.6,16.7-5.6,9.3-3z M-8.8-4.2
		c-0.3,0.7-0.6,1.5-0.8,2.3c-8-1.5-11.3-3.2-11.1-4.8c0,0,0.2-0.8,0.4-1.5c1.3-3.1,2.5-3.4,2.5-3.4C-18.4-10.1-15.8-7.6-8.8-4.2z
		 M0.7-9.7c-0.2,0-0.4,0-0.7,0c-0.6,0-1.2,0.1-1.8,0.2c-1.7-7.9-1.4-11.6,0.2-12.1c0,0,0.8-0.2,1.6-0.2c3.4,0,4.1,1,4.1,1
		C2.5-20.8,1.1-17.5,0.7-9.7z M-6.5-7.2c-0.6,0.5-1.1,1.1-1.6,1.8c-6.8-4.4-9.2-7.3-8.4-8.7c0,0,0.5-0.7,1-1.2
		c2.4-2.4,3.6-2.2,3.6-2.2C-13.1-16.4-11.7-13.1-6.5-7.2z M-5.3-8.2c-4.6-6.6-5.7-10.2-4.4-11.2c0,0,0.7-0.5,1.4-0.8
		c3.1-1.3,4.2-0.6,4.2-0.6c-1.5,0.6-1.5,4.2,1,11.6C-4-9-4.7-8.6-5.3-8.2z"/>
</symbol>
<g>
	<g>
		<path class="st0" d="M1766.2,178.7c-0.3-0.7-0.6-1.2-1.1-1.6s-1-0.7-1.6-0.9c-0.6-0.2-1.1-0.4-1.7-0.4c-0.6-0.1-1.1-0.1-1.4-0.1
			c-1.3,0-2.5,0.3-3.6,0.8c-1.1,0.5-2.1,1.3-2.9,2.3c-0.8,1-1.4,2.3-1.9,3.7c-0.5,1.5-0.7,3.2-0.7,5.1c0,1.9,0.2,3.6,0.7,5.2
			c0.5,1.6,1.1,2.9,2,4.1c0.8,1.1,1.9,2,3,2.7c1.2,0.6,2.5,1,3.9,1c0.9,0,1.7-0.1,2.6-0.4c0.9-0.2,1.7-0.6,2.4-1
			c0.8-0.4,1.5-0.9,2.1-1.5s1.2-1.2,1.7-1.9l1.4,1.1c-0.7,1.2-1.6,2.2-2.6,3c-1,0.8-2,1.5-3,2.1s-2.1,0.9-3.2,1.2
			c-1.1,0.3-2.1,0.4-3,0.4c-1.9,0-3.7-0.3-5.4-1c-1.7-0.6-3.1-1.6-4.4-2.8c-1.3-1.2-2.3-2.7-3-4.5c-0.7-1.8-1.1-3.8-1.1-6.1
			c0-1.3,0.2-2.6,0.5-3.8c0.3-1.3,0.8-2.5,1.4-3.6c0.6-1.1,1.3-2.2,2.2-3.2c0.9-1,1.8-1.8,2.9-2.5c1.1-0.7,2.3-1.3,3.6-1.7
			s2.6-0.6,4.1-0.6c1.6,0,3,0.2,4.2,0.6c1.3,0.4,2.4,0.9,3.3,1.5c0.9,0.6,1.6,1.4,2.1,2.2c0.5,0.8,0.7,1.7,0.7,2.6
			c0,0.8-0.2,1.5-0.7,2.1c-0.4,0.6-1.1,0.9-1.9,0.9c-0.5,0-0.9-0.1-1.2-0.2c-0.3-0.2-0.6-0.4-0.8-0.6c-0.2-0.3-0.3-0.5-0.4-0.8
			s-0.1-0.6-0.1-0.8c0-0.4,0.1-0.7,0.2-1.1S1765.9,179,1766.2,178.7z"/>
		<path class="st0" d="M1789.2,173.6c2,0,3.8,0.4,5.5,1.1c1.7,0.7,3.2,1.7,4.5,3s2.3,2.8,3,4.5c0.7,1.7,1.1,3.6,1.1,5.6
			c0,2.2-0.4,4.2-1.1,6.1c-0.7,1.9-1.7,3.5-3,5s-2.8,2.5-4.5,3.3c-1.7,0.8-3.6,1.2-5.6,1.2c-2,0-3.8-0.4-5.5-1.1
			c-1.7-0.7-3.2-1.7-4.5-2.9s-2.3-2.8-3-4.5c-0.7-1.7-1.1-3.7-1.1-5.7c0-2.2,0.4-4.3,1.1-6.2c0.7-1.9,1.7-3.6,3-5
			c1.3-1.4,2.7-2.5,4.5-3.3C1785.3,174,1787.2,173.6,1789.2,173.6z M1789.2,175.7c-1.5,0-2.7,0.3-3.8,1c-1,0.7-1.9,1.5-2.6,2.6
			c-0.7,1.1-1.2,2.4-1.5,3.8c-0.3,1.4-0.5,2.9-0.5,4.4c0,1.7,0.2,3.4,0.5,5.1c0.4,1.6,0.9,3.1,1.6,4.4c0.7,1.3,1.6,2.3,2.7,3.1
			c1.1,0.8,2.4,1.2,3.9,1.2s2.7-0.3,3.7-1c1-0.7,1.8-1.5,2.5-2.6c0.6-1.1,1.1-2.3,1.4-3.8c0.3-1.4,0.4-2.8,0.4-4.3
			c0-1.7-0.2-3.3-0.5-5c-0.3-1.6-0.8-3.1-1.5-4.4c-0.7-1.3-1.5-2.3-2.6-3.1C1792,176.1,1790.7,175.7,1789.2,175.7z"/>
		<path class="st0" d="M1811.4,181.2c0-0.6,0-1.2,0-1.8c0-0.6,0.1-1.2,0.2-1.9l-4,0.2v-2.4c1.2,0,2.2,0,3-0.1s1.4-0.2,1.8-0.3
			s0.8-0.3,1.1-0.5c0.3-0.2,0.5-0.4,0.7-0.6h1.6c0,0.4,0.1,0.9,0.1,1.4c0,0.5,0.1,1.2,0.1,2c0.6-0.5,1.3-1,2-1.5
			c0.7-0.5,1.5-0.9,2.3-1.2c0.8-0.3,1.6-0.6,2.4-0.8c0.8-0.2,1.6-0.3,2.4-0.3c3.2,0,5.6,1,7.1,3.1c1.5,2,2.2,5.2,2.2,9.5v10.5
			c0,0.7,0,1.4,0,2c0,0.6-0.1,1.2-0.2,1.8l3.5-0.2v2.3h-11.4v-1.7c0.9,0,1.5-0.2,2-0.5c0.4-0.3,0.8-0.8,1-1.4
			c0.2-0.6,0.3-1.3,0.3-2.2s0-1.8,0-2.8v-7.8c0-3.2-0.6-5.7-1.6-7.3c-1-1.6-2.6-2.4-4.9-2.4c-0.7,0-1.3,0.1-2,0.3s-1.3,0.5-1.9,0.8
			s-1.2,0.7-1.8,1.1c-0.5,0.4-1,0.9-1.4,1.4c0,0.3,0,0.7,0,1.1s0,0.8,0,1.1l-0.1,14.3c0,0.7,0,1.4,0,2c0,0.6-0.1,1.2-0.2,1.8
			l3.5-0.2v2.3h-11.4v-1.7c0.9,0,1.5-0.2,2-0.5c0.4-0.3,0.8-0.8,1-1.4c0.2-0.6,0.3-1.3,0.3-2.2s0.1-1.8,0.1-2.8L1811.4,181.2z"/>
		<path class="st0" d="M1840.3,174.5c1,0,1.9-0.3,2.7-0.8s1.5-1.2,2.1-1.9c0.6-0.8,1.1-1.6,1.5-2.5c0.4-0.9,0.7-1.8,1-2.6h1.9
			c0,1.5,0,2.9,0,4.2c0,1.3,0,2.5,0,3.7h9.4v2.2l-9.4,0.1c0,2.4,0,4.5,0,6.2c0,1.7,0,3.1,0,4.3c0,1.1,0,2.1,0,2.7s0,1.2,0,1.5
			s0,0.6,0,0.7s0,0.2,0,0.2c0,1.3,0.1,2.4,0.2,3.4c0.1,1,0.4,1.8,0.7,2.5c0.3,0.7,0.8,1.2,1.3,1.5c0.5,0.3,1.2,0.5,2,0.5
			c1,0,1.9-0.3,2.9-0.9s1.8-1.4,2.5-2.5l1.5,1.2c-0.8,1.2-1.6,2.2-2.4,2.9c-0.8,0.7-1.6,1.2-2.3,1.6c-0.7,0.4-1.4,0.6-2,0.7
			c-0.6,0.1-1.2,0.1-1.7,0.1c-0.6,0-1.1,0-1.7-0.1c-0.6-0.1-1.2-0.3-1.8-0.5c-0.6-0.3-1.1-0.6-1.6-1.1c-0.5-0.5-0.9-1.1-1.3-1.9
			c-0.4-0.8-0.7-1.7-0.9-2.8c-0.2-1.1-0.3-2.4-0.3-3.9l0.1-16.2l-4.3,0V174.5z"/>
		<path class="st0" d="M1888.7,186l-19.7,0.3c0,2.2,0.1,4.1,0.5,5.9c0.3,1.8,0.9,3.3,1.6,4.5c0.7,1.2,1.7,2.2,2.9,2.9s2.6,1,4.2,1
			c0.9,0,1.8-0.1,2.7-0.4c0.9-0.2,1.8-0.6,2.6-1c0.8-0.4,1.6-0.9,2.3-1.5s1.3-1.2,1.8-1.9l1.4,1.1c-0.8,1.2-1.7,2.2-2.7,3
			c-1,0.8-2.1,1.5-3.1,2c-1.1,0.5-2.2,0.9-3.3,1.1c-1.1,0.2-2.1,0.3-3.1,0.3c-1.9,0-3.7-0.3-5.4-1s-3.1-1.7-4.3-3
			c-1.2-1.3-2.2-2.9-2.9-4.7c-0.7-1.8-1.1-3.9-1.1-6.2c0-2,0.3-3.9,1-5.6c0.7-1.8,1.6-3.4,2.9-4.8c1.2-1.4,2.7-2.5,4.5-3.3
			c1.7-0.8,3.7-1.2,5.8-1.2c1.6,0,3,0.3,4.4,0.8c1.4,0.5,2.6,1.3,3.6,2.3c1,1,1.9,2.3,2.5,3.9C1888.4,182.1,1888.7,183.9,1888.7,186
			z M1877.3,175.8c-2.2,0-4,0.6-5.4,1.9c-1.4,1.3-2.4,3.4-2.8,6.2h14.3c0-1-0.1-2-0.3-2.9c-0.2-1-0.6-1.8-1.1-2.6
			c-0.5-0.8-1.1-1.4-1.9-1.9C1879.4,176,1878.4,175.8,1877.3,175.8z"/>
		<path class="st0" d="M1897,181.2c0-0.6,0-1.2,0-1.8c0-0.6,0.1-1.2,0.2-1.9l-4,0.2v-2.4c1.2,0,2.2,0,3-0.1s1.4-0.2,1.8-0.3
			s0.8-0.3,1.1-0.5s0.5-0.4,0.7-0.6h1.6c0,0.4,0.1,0.9,0.1,1.4c0,0.5,0.1,1.2,0.1,2c0.6-0.5,1.3-1,2-1.5c0.7-0.5,1.5-0.9,2.3-1.2
			c0.8-0.3,1.6-0.6,2.4-0.8c0.8-0.2,1.6-0.3,2.4-0.3c3.2,0,5.6,1,7.1,3.1c1.5,2,2.2,5.2,2.2,9.5v10.5c0,0.7,0,1.4,0,2
			c0,0.6-0.1,1.2-0.2,1.8l3.5-0.2v2.3h-11.4v-1.7c0.9,0,1.5-0.2,2-0.5c0.4-0.3,0.8-0.8,1-1.4c0.2-0.6,0.3-1.3,0.3-2.2s0-1.8,0-2.8
			v-7.8c0-3.2-0.6-5.7-1.6-7.3s-2.6-2.4-4.9-2.4c-0.7,0-1.3,0.1-2,0.3s-1.3,0.5-1.9,0.8s-1.2,0.7-1.8,1.1c-0.5,0.4-1,0.9-1.4,1.4
			c0,0.3,0,0.7,0,1.1s0,0.8,0,1.1l-0.1,14.3c0,0.7,0,1.4,0,2c0,0.6-0.1,1.2-0.2,1.8l3.5-0.2v2.3h-11.4v-1.7c0.9,0,1.5-0.2,2-0.5
			c0.4-0.3,0.8-0.8,1-1.4c0.2-0.6,0.3-1.3,0.3-2.2s0.1-1.8,0.1-2.8L1897,181.2z"/>
		<path class="st0" d="M1925.9,174.5c1,0,1.9-0.3,2.7-0.8s1.5-1.2,2.1-1.9c0.6-0.8,1.1-1.6,1.5-2.5s0.7-1.8,1-2.6h1.9
			c0,1.5,0,2.9,0,4.2c0,1.3,0,2.5,0,3.7h9.4v2.2l-9.4,0.1c0,2.4,0,4.5,0,6.2c0,1.7,0,3.1,0,4.3c0,1.1,0,2.1,0,2.7s0,1.2,0,1.5
			c0,0.3,0,0.6,0,0.7s0,0.2,0,0.2c0,1.3,0.1,2.4,0.2,3.4c0.1,1,0.4,1.8,0.7,2.5s0.8,1.2,1.3,1.5c0.5,0.3,1.2,0.5,2,0.5
			c1,0,1.9-0.3,2.9-0.9c0.9-0.6,1.8-1.4,2.5-2.5l1.5,1.2c-0.8,1.2-1.6,2.2-2.4,2.9c-0.8,0.7-1.6,1.2-2.3,1.6c-0.7,0.4-1.4,0.6-2,0.7
			c-0.6,0.1-1.2,0.1-1.7,0.1c-0.6,0-1.1,0-1.7-0.1c-0.6-0.1-1.2-0.3-1.8-0.5c-0.6-0.3-1.1-0.6-1.6-1.1c-0.5-0.5-0.9-1.1-1.3-1.9
			s-0.7-1.7-0.9-2.8c-0.2-1.1-0.3-2.4-0.3-3.9l0.1-16.2l-4.3,0V174.5z"/>
		<path class="st1" d="M1942.6,214.6c0-0.7,0.2-1.3,0.7-1.8c0.4-0.5,1-0.8,1.7-0.8c0.5,0,0.8,0.1,1.1,0.2c0.3,0.2,0.6,0.4,0.8,0.6
			c0.2,0.2,0.3,0.5,0.4,0.8c0.1,0.3,0.1,0.5,0.1,0.8c0,0.1,0,0.2,0,0.3s0,0.2,0,0.3c0.5,0.2,1,0.3,1.4,0.3c0.2,0,0.6-0.1,1-0.2
			c0.4-0.1,0.8-0.4,1.3-0.8c0.6-0.6,1-1.5,1.3-2.7s0.3-2.6,0.3-4.1l0.1-26.1c0-0.6,0-1.1,0-1.7s0.1-1.2,0.2-1.9l-4,0.2v-2.4
			c1.2,0,2.2,0,3.1-0.1c0.8-0.1,1.5-0.2,2-0.3c0.5-0.1,0.9-0.3,1.2-0.5c0.3-0.2,0.5-0.4,0.8-0.6h1.6v28.8c0,2.6-0.3,4.9-0.8,6.7
			c-0.5,1.9-1.3,3.4-2.2,4.7c-1,1.2-2.1,2.1-3.4,2.7c-1.3,0.6-2.7,0.9-4.2,0.9c-0.8,0-1.4-0.1-2-0.3s-1-0.4-1.4-0.7
			c-0.4-0.3-0.6-0.6-0.8-1C1942.7,215.3,1942.6,215,1942.6,214.6z M1958,165.1c0,0.5-0.1,0.9-0.3,1.3c-0.2,0.4-0.4,0.8-0.7,1.1
			c-0.3,0.3-0.6,0.5-1,0.7c-0.4,0.2-0.7,0.2-1.1,0.2s-0.8-0.1-1.1-0.2c-0.4-0.2-0.7-0.4-1-0.7c-0.3-0.3-0.5-0.7-0.7-1.1
			s-0.2-0.8-0.2-1.3c0-0.5,0.1-0.9,0.2-1.3c0.2-0.4,0.4-0.8,0.7-1.1c0.3-0.3,0.6-0.6,1-0.7s0.8-0.3,1.2-0.3c0.4,0,0.8,0.1,1.2,0.3
			c0.4,0.2,0.7,0.4,0.9,0.7c0.3,0.3,0.5,0.7,0.6,1.1C1957.9,164.2,1958,164.6,1958,165.1z"/>
		<path class="st1" d="M1989.7,186l-19.7,0.3c0,2.2,0.1,4.1,0.5,5.9s0.9,3.3,1.6,4.5c0.7,1.2,1.7,2.2,2.9,2.9c1.2,0.7,2.6,1,4.2,1
			c0.9,0,1.8-0.1,2.7-0.4c0.9-0.2,1.8-0.6,2.6-1c0.8-0.4,1.6-0.9,2.3-1.5s1.3-1.2,1.8-1.9l1.4,1.1c-0.8,1.2-1.7,2.2-2.7,3
			s-2.1,1.5-3.1,2s-2.2,0.9-3.3,1.1c-1.1,0.2-2.1,0.3-3.1,0.3c-1.9,0-3.7-0.3-5.4-1s-3.1-1.7-4.3-3c-1.2-1.3-2.2-2.9-2.9-4.7
			s-1.1-3.9-1.1-6.2c0-2,0.3-3.9,1-5.6c0.7-1.8,1.6-3.4,2.9-4.8c1.2-1.4,2.7-2.5,4.5-3.3c1.7-0.8,3.7-1.2,5.8-1.2
			c1.6,0,3,0.3,4.4,0.8s2.6,1.3,3.6,2.3c1,1,1.9,2.3,2.5,3.9C1989.4,182.1,1989.7,183.9,1989.7,186z M1978.4,175.8
			c-2.2,0-4,0.6-5.4,1.9c-1.4,1.3-2.4,3.4-2.8,6.2h14.3c0-1-0.1-2-0.3-2.9c-0.2-1-0.6-1.8-1.1-2.6c-0.5-0.8-1.1-1.4-1.9-1.9
			C1980.4,176,1979.5,175.8,1978.4,175.8z"/>
		<path class="st1" d="M1993,174.5c1,0,1.9-0.3,2.7-0.8s1.5-1.2,2.1-1.9c0.6-0.8,1.1-1.6,1.5-2.5c0.4-0.9,0.7-1.8,1-2.6h1.9
			c0,1.5,0,2.9,0,4.2c0,1.3,0,2.5,0,3.7h9.4v2.2l-9.4,0.1c0,2.4,0,4.5,0,6.2c0,1.7,0,3.1,0,4.3c0,1.1,0,2.1,0,2.7s0,1.2,0,1.5
			c0,0.3,0,0.6,0,0.7s0,0.2,0,0.2c0,1.3,0.1,2.4,0.2,3.4c0.1,1,0.4,1.8,0.7,2.5s0.8,1.2,1.3,1.5c0.5,0.3,1.2,0.5,2,0.5
			c1,0,1.9-0.3,2.9-0.9c0.9-0.6,1.8-1.4,2.5-2.5l1.5,1.2c-0.8,1.2-1.6,2.2-2.4,2.9c-0.8,0.7-1.6,1.2-2.3,1.6c-0.7,0.4-1.4,0.6-2,0.7
			c-0.6,0.1-1.2,0.1-1.7,0.1c-0.6,0-1.1,0-1.7-0.1c-0.6-0.1-1.2-0.3-1.8-0.5c-0.6-0.3-1.1-0.6-1.6-1.1c-0.5-0.5-0.9-1.1-1.3-1.9
			s-0.7-1.7-0.9-2.8c-0.2-1.1-0.3-2.4-0.3-3.9l0.1-16.2l-4.3,0V174.5z"/>
	</g>
	<g>
		<g>
			<path class="st1" d="M1706,188.9c11.8,3.1,17.2,3.1,17.8,1.1c0,0,0.2-0.8,0.2-1.6c0-3.4-1-4.1-1-4.1c0,2-5,3.7-17,3.7L1706,188.9
				z"/>
			<path class="st1" d="M1705.9,187.3c12.1-1.6,17.1-3.7,16.8-5.7c0,0-0.2-0.8-0.4-1.5c-1.3-3.1-2.5-3.4-2.5-3.4
				c0.8,1.9-3.2,5.3-14.3,9.9L1705.9,187.3z"/>
			<path class="st1" d="M1705.1,185.9c10.5-6.1,14.4-10,13.4-11.8c0,0-0.5-0.7-1-1.2c-2.4-2.4-3.6-2.2-3.6-2.2
				c1.4,1.4-0.9,6.1-9.4,14.6L1705.1,185.9z"/>
			<path class="st1" d="M1703.9,184.9c7.4-9.7,9.5-14.7,7.9-16c0,0-0.7-0.5-1.4-0.8c-3.1-1.3-4.2-0.6-4.2-0.6
				c1.9,0.8,1.5,6-3.1,17.1L1703.9,184.9z"/>
			<path class="st1" d="M1702.4,184.5c3.1-11.8,3.1-17.2,1.1-17.8c0,0-0.8-0.2-1.6-0.2c-3.4,0-4.1,1-4.1,1c2,0,3.7,5,3.7,17
				L1702.4,184.5z"/>
			<path class="st1" d="M1700.8,184.6c-1.6-12.1-3.7-17.1-5.7-16.8c0,0-0.8,0.2-1.5,0.4c-3.1,1.3-3.4,2.5-3.4,2.5
				c1.9-0.8,5.3,3.2,9.9,14.3L1700.8,184.6z"/>
			<path class="st1" d="M1699.4,185.3c-6.1-10.5-10-14.4-11.8-13.4c0,0-0.7,0.5-1.2,1c-2.4,2.4-2.2,3.6-2.2,3.6
				c1.4-1.4,6.1,0.9,14.6,9.4L1699.4,185.3z"/>
			<path class="st1" d="M1698.4,186.6c-9.7-7.4-14.7-9.5-16-7.9c0,0-0.5,0.7-0.8,1.4c-1.3,3.1-0.6,4.2-0.6,4.2
				c0.8-1.9,6-1.5,17.1,3.1L1698.4,186.6z"/>
			<path class="st1" d="M1697.9,188.1c-11.8-3.1-17.2-3.1-17.8-1.1c0,0-0.2,0.8-0.2,1.6c0,3.4,1,4.1,1,4.1c0-2,5-3.7,17-3.7
				L1697.9,188.1z"/>
			<path class="st1" d="M1698,189.7c-12.1,1.6-17.1,3.7-16.8,5.7c0,0,0.2,0.8,0.4,1.5c1.3,3.1,2.5,3.4,2.5,3.4
				c-0.8-1.9,3.2-5.3,14.3-9.9L1698,189.7z"/>
			<path class="st1" d="M1698.8,191.1c-10.5,6.1-14.4,10-13.4,11.8c0,0,0.5,0.7,1,1.2c2.4,2.4,3.6,2.2,3.6,2.2
				c-1.4-1.4,0.9-6.1,9.4-14.6L1698.8,191.1z"/>
			<path class="st1" d="M1700,192.1c-7.4,9.7-9.5,14.7-7.9,16c0,0,0.7,0.5,1.4,0.8c3.1,1.3,4.2,0.6,4.2,0.6c-1.9-0.8-1.5-6,3.1-17.1
				L1700,192.1z"/>
			<path class="st1" d="M1701.5,192.6c-3.1,11.8-3.1,17.2-1.1,17.8c0,0,0.8,0.2,1.6,0.2c3.4,0,4.1-1,4.1-1c-2,0-3.7-5-3.7-17
				L1701.5,192.6z"/>
			<path class="st1" d="M1703.1,192.4c1.6,12.1,3.7,17.1,5.7,16.8c0,0,0.8-0.2,1.5-0.4c3.1-1.3,3.4-2.5,3.4-2.5
				c-1.9,0.8-5.3-3.2-9.9-14.3L1703.1,192.4z"/>
			<path class="st1" d="M1704.5,191.7c6.1,10.5,10,14.4,11.8,13.4c0,0,0.7-0.5,1.2-1c2.4-2.4,2.2-3.6,2.2-3.6
				c-1.4,1.4-6.1-0.9-14.6-9.4L1704.5,191.7z"/>
			<path class="st1" d="M1705.5,190.5c9.7,7.4,14.7,9.5,16,7.9c0,0,0.5-0.7,0.8-1.4c1.3-3.1,0.6-4.2,0.6-4.2
				c-0.8,1.9-6,1.5-17.1-3.1L1705.5,190.5z"/>
		</g>
		<circle class="st1" cx="1701.9" cy="188.7" r="8.5"/>
		<path class="st2" d="M1701.9,198.4c-5.4,0-9.8-4.4-9.8-9.8c0-5.4,4.4-9.8,9.8-9.8s9.8,4.4,9.8,9.8
			C1711.7,194.1,1707.3,198.4,1701.9,198.4z M1701.9,182.4c-3.4,0-6.2,2.8-6.2,6.2c0,3.4,2.8,6.2,6.2,6.2s6.2-2.8,6.2-6.2
			C1708.1,185.2,1705.3,182.4,1701.9,182.4z"/>
		<path class="st1" d="M1733.9,188.7c0,17.7-14.3,32-32,32s-32-14.3-32-32s14.3-32,32-32S1733.9,171,1733.9,188.7z M1701.9,164.2
			c-13.5,0-24.5,11-24.5,24.5s11,24.5,24.5,24.5c13.5,0,24.5-11,24.5-24.5S1715.4,164.2,1701.9,164.2z"/>
	</g>
</g>
<g>
	<g>
		<path class="st1" d="M1706,309.9c11.8,3.1,17.2,3.1,17.8,1.1c0,0,0.2-0.8,0.2-1.6c0-3.4-1-4.1-1-4.1c0,2-5,3.7-17,3.7L1706,309.9z
			"/>
		<path class="st1" d="M1705.9,308.3c12.1-1.6,17.1-3.7,16.8-5.7c0,0-0.2-0.8-0.4-1.5c-1.3-3.1-2.5-3.4-2.5-3.4
			c0.8,1.9-3.2,5.3-14.3,9.9L1705.9,308.3z"/>
		<path class="st1" d="M1705.1,306.9c10.5-6.1,14.4-10,13.4-11.8c0,0-0.5-0.7-1-1.2c-2.4-2.4-3.6-2.2-3.6-2.2
			c1.4,1.4-0.9,6.1-9.4,14.6L1705.1,306.9z"/>
		<path class="st1" d="M1703.9,305.9c7.4-9.7,9.5-14.7,7.9-16c0,0-0.7-0.5-1.4-0.8c-3.1-1.3-4.2-0.6-4.2-0.6c1.9,0.8,1.5,6-3.1,17.1
			L1703.9,305.9z"/>
		<path class="st1" d="M1702.4,305.5c3.1-11.8,3.1-17.2,1.1-17.8c0,0-0.8-0.2-1.6-0.2c-3.4,0-4.1,1-4.1,1c2,0,3.7,5,3.7,17
			L1702.4,305.5z"/>
		<path class="st1" d="M1700.8,305.6c-1.6-12.1-3.7-17.1-5.7-16.8c0,0-0.8,0.2-1.5,0.4c-3.1,1.3-3.4,2.5-3.4,2.5
			c1.9-0.8,5.3,3.2,9.9,14.3L1700.8,305.6z"/>
		<path class="st1" d="M1699.4,306.3c-6.1-10.5-10-14.4-11.8-13.4c0,0-0.7,0.5-1.2,1c-2.4,2.4-2.2,3.6-2.2,3.6
			c1.4-1.4,6.1,0.9,14.6,9.4L1699.4,306.3z"/>
		<path class="st1" d="M1698.4,307.6c-9.7-7.4-14.7-9.5-16-7.9c0,0-0.5,0.7-0.8,1.4c-1.3,3.1-0.6,4.2-0.6,4.2
			c0.8-1.9,6-1.5,17.1,3.1L1698.4,307.6z"/>
		<path class="st1" d="M1697.9,309.1c-11.8-3.1-17.2-3.1-17.8-1.1c0,0-0.2,0.8-0.2,1.6c0,3.4,1,4.1,1,4.1c0-2,5-3.7,17-3.7
			L1697.9,309.1z"/>
		<path class="st1" d="M1698,310.7c-12.1,1.6-17.1,3.7-16.8,5.7c0,0,0.2,0.8,0.4,1.5c1.3,3.1,2.5,3.4,2.5,3.4
			c-0.8-1.9,3.2-5.3,14.3-9.9L1698,310.7z"/>
		<path class="st1" d="M1698.8,312.1c-10.5,6.1-14.4,10-13.4,11.8c0,0,0.5,0.7,1,1.2c2.4,2.4,3.6,2.2,3.6,2.2
			c-1.4-1.4,0.9-6.1,9.4-14.6L1698.8,312.1z"/>
		<path class="st1" d="M1700,313.1c-7.4,9.7-9.5,14.7-7.9,16c0,0,0.7,0.5,1.4,0.8c3.1,1.3,4.2,0.6,4.2,0.6c-1.9-0.8-1.5-6,3.1-17.1
			L1700,313.1z"/>
		<path class="st1" d="M1701.5,313.6c-3.1,11.8-3.1,17.2-1.1,17.8c0,0,0.8,0.2,1.6,0.2c3.4,0,4.1-1,4.1-1c-2,0-3.7-5-3.7-17
			L1701.5,313.6z"/>
		<path class="st1" d="M1703.1,313.4c1.6,12.1,3.7,17.1,5.7,16.8c0,0,0.8-0.2,1.5-0.4c3.1-1.3,3.4-2.5,3.4-2.5
			c-1.9,0.8-5.3-3.2-9.9-14.3L1703.1,313.4z"/>
		<path class="st1" d="M1704.5,312.7c6.1,10.5,10,14.4,11.8,13.4c0,0,0.7-0.5,1.2-1c2.4-2.4,2.2-3.6,2.2-3.6
			c-1.4,1.4-6.1-0.9-14.6-9.4L1704.5,312.7z"/>
		<path class="st1" d="M1705.5,311.5c9.7,7.4,14.7,9.5,16,7.9c0,0,0.5-0.7,0.8-1.4c1.3-3.1,0.6-4.2,0.6-4.2c-0.8,1.9-6,1.5-17.1-3.1
			L1705.5,311.5z"/>
	</g>
	<circle class="st1" cx="1701.9" cy="309.7" r="8.5"/>
	<path class="st2" d="M1701.9,319.4c-5.4,0-9.8-4.4-9.8-9.8c0-5.4,4.4-9.8,9.8-9.8s9.8,4.4,9.8,9.8
		C1711.7,315.1,1707.3,319.4,1701.9,319.4z M1701.9,303.4c-3.4,0-6.2,2.8-6.2,6.2s2.8,6.2,6.2,6.2s6.2-2.8,6.2-6.2
		S1705.3,303.4,1701.9,303.4z"/>
	<path class="st1" d="M1733.9,309.7c0,17.7-14.3,32-32,32s-32-14.3-32-32c0-17.7,14.3-32,32-32S1733.9,292,1733.9,309.7z
		 M1701.9,285.2c-13.5,0-24.5,11-24.5,24.5s11,24.5,24.5,24.5c13.5,0,24.5-11,24.5-24.5S1715.4,285.2,1701.9,285.2z"/>
</g>
<text transform="matrix(1.1 0 0 1 1742.9142 323.4932)"><tspan x="0" y="0" class="st0" style="font-family:'PlayfairDisplay-Regular'; font-size:54px;">content</tspan><tspan x="185.9" y="0" class="st1" style="font-family:'PlayfairDisplay-Regular'; font-size:54px;">jet</tspan></text>
<g>
	<g>
		<path class="st1" d="M2094,194.9c11.8,3.1,17.2,3.1,17.8,1.1c0,0,0.2-0.8,0.2-1.6c0-3.4-1-4.1-1-4.1c0,2-5,3.7-17,3.7L2094,194.9z
			"/>
		<path class="st1" d="M2093.9,193.3c12.1-1.6,17.1-3.7,16.8-5.7c0,0-0.2-0.8-0.4-1.5c-1.3-3.1-2.5-3.4-2.5-3.4
			c0.8,1.9-3.2,5.3-14.3,9.9L2093.9,193.3z"/>
		<path class="st1" d="M2093.1,191.9c10.5-6.1,14.4-10,13.4-11.8c0,0-0.5-0.7-1-1.2c-2.4-2.4-3.6-2.2-3.6-2.2
			c1.4,1.4-0.9,6.1-9.4,14.6L2093.1,191.9z"/>
		<path class="st1" d="M2091.9,190.9c7.4-9.7,9.5-14.7,7.9-16c0,0-0.7-0.5-1.4-0.8c-3.1-1.3-4.2-0.6-4.2-0.6c1.9,0.8,1.5,6-3.1,17.1
			L2091.9,190.9z"/>
		<path class="st1" d="M2090.4,190.5c3.1-11.8,3.1-17.2,1.1-17.8c0,0-0.8-0.2-1.6-0.2c-3.4,0-4.1,1-4.1,1c2,0,3.7,5,3.7,17
			L2090.4,190.5z"/>
		<path class="st1" d="M2088.8,190.6c-1.6-12.1-3.7-17.1-5.7-16.8c0,0-0.8,0.2-1.5,0.4c-3.1,1.3-3.4,2.5-3.4,2.5
			c1.9-0.8,5.3,3.2,9.9,14.3L2088.8,190.6z"/>
		<path class="st1" d="M2087.4,191.3c-6.1-10.5-10-14.4-11.8-13.4c0,0-0.7,0.5-1.2,1c-2.4,2.4-2.2,3.6-2.2,3.6
			c1.4-1.4,6.1,0.9,14.6,9.4L2087.4,191.3z"/>
		<path class="st1" d="M2086.4,192.6c-9.7-7.4-14.7-9.5-16-7.9c0,0-0.5,0.7-0.8,1.4c-1.3,3.1-0.6,4.2-0.6,4.2
			c0.8-1.9,6-1.5,17.1,3.1L2086.4,192.6z"/>
		<path class="st1" d="M2085.9,194.1c-11.8-3.1-17.2-3.1-17.8-1.1c0,0-0.2,0.8-0.2,1.6c0,3.4,1,4.1,1,4.1c0-2,5-3.7,17-3.7
			L2085.9,194.1z"/>
		<path class="st1" d="M2086,195.7c-12.1,1.6-17.1,3.7-16.8,5.7c0,0,0.2,0.8,0.4,1.5c1.3,3.1,2.5,3.4,2.5,3.4
			c-0.8-1.9,3.2-5.3,14.3-9.9L2086,195.7z"/>
		<path class="st1" d="M2086.8,197.1c-10.5,6.1-14.4,10-13.4,11.8c0,0,0.5,0.7,1,1.2c2.4,2.4,3.6,2.2,3.6,2.2
			c-1.4-1.4,0.9-6.1,9.4-14.6L2086.8,197.1z"/>
		<path class="st1" d="M2088,198.1c-7.4,9.7-9.5,14.7-7.9,16c0,0,0.7,0.5,1.4,0.8c3.1,1.3,4.2,0.6,4.2,0.6c-1.9-0.8-1.5-6,3.1-17.1
			L2088,198.1z"/>
		<path class="st1" d="M2089.5,198.6c-3.1,11.8-3.1,17.2-1.1,17.8c0,0,0.8,0.2,1.6,0.2c3.4,0,4.1-1,4.1-1c-2,0-3.7-5-3.7-17
			L2089.5,198.6z"/>
		<path class="st1" d="M2091.1,198.4c1.6,12.1,3.7,17.1,5.7,16.8c0,0,0.8-0.2,1.5-0.4c3.1-1.3,3.4-2.5,3.4-2.5
			c-1.9,0.8-5.3-3.2-9.9-14.3L2091.1,198.4z"/>
		<path class="st1" d="M2092.5,197.7c6.1,10.5,10,14.4,11.8,13.4c0,0,0.7-0.5,1.2-1c2.4-2.4,2.2-3.6,2.2-3.6
			c-1.4,1.4-6.1-0.9-14.6-9.4L2092.5,197.7z"/>
		<path class="st1" d="M2093.5,196.5c9.7,7.4,14.7,9.5,16,7.9c0,0,0.5-0.7,0.8-1.4c1.3-3.1,0.6-4.2,0.6-4.2c-0.8,1.9-6,1.5-17.1-3.1
			L2093.5,196.5z"/>
	</g>
	<circle class="st1" cx="2089.9" cy="194.7" r="8.5"/>
	<path class="st2" d="M2089.9,204.4c-5.4,0-9.8-4.4-9.8-9.8c0-5.4,4.4-9.8,9.8-9.8c5.4,0,9.8,4.4,9.8,9.8
		C2099.7,200.1,2095.3,204.4,2089.9,204.4z M2089.9,188.4c-3.4,0-6.2,2.8-6.2,6.2c0,3.4,2.8,6.2,6.2,6.2c3.4,0,6.2-2.8,6.2-6.2
		C2096.1,191.2,2093.3,188.4,2089.9,188.4z"/>
	<path class="st1" d="M2121.9,194.7c0,17.7-14.3,32-32,32s-32-14.3-32-32s14.3-32,32-32S2121.9,177,2121.9,194.7z M2089.9,170.2
		c-13.5,0-24.5,11-24.5,24.5s11,24.5,24.5,24.5s24.5-11,24.5-24.5S2103.4,170.2,2089.9,170.2z"/>
</g>
<text transform="matrix(1.1 0 0 1 2129.9141 210.4932)"><tspan x="0" y="0" class="st0" style="font-family:'PlayfairDisplay-Regular'; font-size:58px; letter-spacing:-0.9;">content</tspan><tspan x="191.5" y="0" class="st1" style="font-family:'PlayfairDisplay-Regular'; font-size:58px; letter-spacing:-0.9;">jet</tspan></text>
<g>
	<g>
		<path class="st1" d="M2094,321.9c11.8,3.1,17.2,3.1,17.8,1.1c0,0,0.2-0.8,0.2-1.6c0-3.4-1-4.1-1-4.1c0,2-5,3.7-17,3.7L2094,321.9z
			"/>
		<path class="st1" d="M2093.9,320.3c12.1-1.6,17.1-3.7,16.8-5.7c0,0-0.2-0.8-0.4-1.5c-1.3-3.1-2.5-3.4-2.5-3.4
			c0.8,1.9-3.2,5.3-14.3,9.9L2093.9,320.3z"/>
		<path class="st1" d="M2093.1,318.9c10.5-6.1,14.4-10,13.4-11.8c0,0-0.5-0.7-1-1.2c-2.4-2.4-3.6-2.2-3.6-2.2
			c1.4,1.4-0.9,6.1-9.4,14.6L2093.1,318.9z"/>
		<path class="st1" d="M2091.9,317.9c7.4-9.7,9.5-14.7,7.9-16c0,0-0.7-0.5-1.4-0.8c-3.1-1.3-4.2-0.6-4.2-0.6c1.9,0.8,1.5,6-3.1,17.1
			L2091.9,317.9z"/>
		<path class="st1" d="M2090.4,317.5c3.1-11.8,3.1-17.2,1.1-17.8c0,0-0.8-0.2-1.6-0.2c-3.4,0-4.1,1-4.1,1c2,0,3.7,5,3.7,17
			L2090.4,317.5z"/>
		<path class="st1" d="M2088.8,317.6c-1.6-12.1-3.7-17.1-5.7-16.8c0,0-0.8,0.2-1.5,0.4c-3.1,1.3-3.4,2.5-3.4,2.5
			c1.9-0.8,5.3,3.2,9.9,14.3L2088.8,317.6z"/>
		<path class="st1" d="M2087.4,318.3c-6.1-10.5-10-14.4-11.8-13.4c0,0-0.7,0.5-1.2,1c-2.4,2.4-2.2,3.6-2.2,3.6
			c1.4-1.4,6.1,0.9,14.6,9.4L2087.4,318.3z"/>
		<path class="st1" d="M2086.4,319.6c-9.7-7.4-14.7-9.5-16-7.9c0,0-0.5,0.7-0.8,1.4c-1.3,3.1-0.6,4.2-0.6,4.2
			c0.8-1.9,6-1.5,17.1,3.1L2086.4,319.6z"/>
		<path class="st1" d="M2085.9,321.1c-11.8-3.1-17.2-3.1-17.8-1.1c0,0-0.2,0.8-0.2,1.6c0,3.4,1,4.1,1,4.1c0-2,5-3.7,17-3.7
			L2085.9,321.1z"/>
		<path class="st1" d="M2086,322.7c-12.1,1.6-17.1,3.7-16.8,5.7c0,0,0.2,0.8,0.4,1.5c1.3,3.1,2.5,3.4,2.5,3.4
			c-0.8-1.9,3.2-5.3,14.3-9.9L2086,322.7z"/>
		<path class="st1" d="M2086.8,324.1c-10.5,6.1-14.4,10-13.4,11.8c0,0,0.5,0.7,1,1.2c2.4,2.4,3.6,2.2,3.6,2.2
			c-1.4-1.4,0.9-6.1,9.4-14.6L2086.8,324.1z"/>
		<path class="st1" d="M2088,325.1c-7.4,9.7-9.5,14.7-7.9,16c0,0,0.7,0.5,1.4,0.8c3.1,1.3,4.2,0.6,4.2,0.6c-1.9-0.8-1.5-6,3.1-17.1
			L2088,325.1z"/>
		<path class="st1" d="M2089.5,325.6c-3.1,11.8-3.1,17.2-1.1,17.8c0,0,0.8,0.2,1.6,0.2c3.4,0,4.1-1,4.1-1c-2,0-3.7-5-3.7-17
			L2089.5,325.6z"/>
		<path class="st1" d="M2091.1,325.4c1.6,12.1,3.7,17.1,5.7,16.8c0,0,0.8-0.2,1.5-0.4c3.1-1.3,3.4-2.5,3.4-2.5
			c-1.9,0.8-5.3-3.2-9.9-14.3L2091.1,325.4z"/>
		<path class="st1" d="M2092.5,324.7c6.1,10.5,10,14.4,11.8,13.4c0,0,0.7-0.5,1.2-1c2.4-2.4,2.2-3.6,2.2-3.6
			c-1.4,1.4-6.1-0.9-14.6-9.4L2092.5,324.7z"/>
		<path class="st1" d="M2093.5,323.5c9.7,7.4,14.7,9.5,16,7.9c0,0,0.5-0.7,0.8-1.4c1.3-3.1,0.6-4.2,0.6-4.2c-0.8,1.9-6,1.5-17.1-3.1
			L2093.5,323.5z"/>
	</g>
	<circle class="st1" cx="2089.9" cy="321.7" r="8.5"/>
	<path class="st2" d="M2089.9,331.4c-5.4,0-9.8-4.4-9.8-9.8c0-5.4,4.4-9.8,9.8-9.8c5.4,0,9.8,4.4,9.8,9.8
		C2099.7,327.1,2095.3,331.4,2089.9,331.4z M2089.9,315.4c-3.4,0-6.2,2.8-6.2,6.2s2.8,6.2,6.2,6.2c3.4,0,6.2-2.8,6.2-6.2
		S2093.3,315.4,2089.9,315.4z"/>
	<path class="st1" d="M2121.9,321.7c0,17.7-14.3,32-32,32s-32-14.3-32-32c0-17.7,14.3-32,32-32S2121.9,304,2121.9,321.7z
		 M2089.9,297.2c-13.5,0-24.5,11-24.5,24.5s11,24.5,24.5,24.5s24.5-11,24.5-24.5S2103.4,297.2,2089.9,297.2z"/>
</g>
<text transform="matrix(1.1 0 0 1 2129.9141 337.4932)"><tspan x="0" y="0" class="st0" style="font-family:'PlayfairDisplay-Regular'; font-size:58px; letter-spacing:-0.9;">content</tspan><tspan x="191.5" y="0" class="st1" style="font-family:'PlayfairDisplay-Regular'; font-size:58px; letter-spacing:-0.9;">jet</tspan></text>
<g>
	<g>
		<path class="st1" d="M1706,433.9c11.8,3.1,17.2,3.1,17.8,1.1c0,0,0.2-0.8,0.2-1.6c0-3.4-1-4.1-1-4.1c0,2-5,3.7-17,3.7L1706,433.9z
			"/>
		<path class="st1" d="M1705.9,432.3c12.1-1.6,17.1-3.7,16.8-5.7c0,0-0.2-0.8-0.4-1.5c-1.3-3.1-2.5-3.4-2.5-3.4
			c0.8,1.9-3.2,5.3-14.3,9.9L1705.9,432.3z"/>
		<path class="st1" d="M1705.1,430.9c10.5-6.1,14.4-10,13.4-11.8c0,0-0.5-0.7-1-1.2c-2.4-2.4-3.6-2.2-3.6-2.2
			c1.4,1.4-0.9,6.1-9.4,14.6L1705.1,430.9z"/>
		<path class="st1" d="M1703.9,429.9c7.4-9.7,9.5-14.7,7.9-16c0,0-0.7-0.5-1.4-0.8c-3.1-1.3-4.2-0.6-4.2-0.6c1.9,0.8,1.5,6-3.1,17.1
			L1703.9,429.9z"/>
		<path class="st1" d="M1702.4,429.5c3.1-11.8,3.1-17.2,1.1-17.8c0,0-0.8-0.2-1.6-0.2c-3.4,0-4.1,1-4.1,1c2,0,3.7,5,3.7,17
			L1702.4,429.5z"/>
		<path class="st1" d="M1700.8,429.6c-1.6-12.1-3.7-17.1-5.7-16.8c0,0-0.8,0.2-1.5,0.4c-3.1,1.3-3.4,2.5-3.4,2.5
			c1.9-0.8,5.3,3.2,9.9,14.3L1700.8,429.6z"/>
		<path class="st1" d="M1699.4,430.3c-6.1-10.5-10-14.4-11.8-13.4c0,0-0.7,0.5-1.2,1c-2.4,2.4-2.2,3.6-2.2,3.6
			c1.4-1.4,6.1,0.9,14.6,9.4L1699.4,430.3z"/>
		<path class="st1" d="M1698.4,431.6c-9.7-7.4-14.7-9.5-16-7.9c0,0-0.5,0.7-0.8,1.4c-1.3,3.1-0.6,4.2-0.6,4.2
			c0.8-1.9,6-1.5,17.1,3.1L1698.4,431.6z"/>
		<path class="st1" d="M1697.9,433.1c-11.8-3.1-17.2-3.1-17.8-1.1c0,0-0.2,0.8-0.2,1.6c0,3.4,1,4.1,1,4.1c0-2,5-3.7,17-3.7
			L1697.9,433.1z"/>
		<path class="st1" d="M1698,434.7c-12.1,1.6-17.1,3.7-16.8,5.7c0,0,0.2,0.8,0.4,1.5c1.3,3.1,2.5,3.4,2.5,3.4
			c-0.8-1.9,3.2-5.3,14.3-9.9L1698,434.7z"/>
		<path class="st1" d="M1698.8,436.1c-10.5,6.1-14.4,10-13.4,11.8c0,0,0.5,0.7,1,1.2c2.4,2.4,3.6,2.2,3.6,2.2
			c-1.4-1.4,0.9-6.1,9.4-14.6L1698.8,436.1z"/>
		<path class="st1" d="M1700,437.1c-7.4,9.7-9.5,14.7-7.9,16c0,0,0.7,0.5,1.4,0.8c3.1,1.3,4.2,0.6,4.2,0.6c-1.9-0.8-1.5-6,3.1-17.1
			L1700,437.1z"/>
		<path class="st1" d="M1701.5,437.6c-3.1,11.8-3.1,17.2-1.1,17.8c0,0,0.8,0.2,1.6,0.2c3.4,0,4.1-1,4.1-1c-2,0-3.7-5-3.7-17
			L1701.5,437.6z"/>
		<path class="st1" d="M1703.1,437.4c1.6,12.1,3.7,17.1,5.7,16.8c0,0,0.8-0.2,1.5-0.4c3.1-1.3,3.4-2.5,3.4-2.5
			c-1.9,0.8-5.3-3.2-9.9-14.3L1703.1,437.4z"/>
		<path class="st1" d="M1704.5,436.7c6.1,10.5,10,14.4,11.8,13.4c0,0,0.7-0.5,1.2-1c2.4-2.4,2.2-3.6,2.2-3.6
			c-1.4,1.4-6.1-0.9-14.6-9.4L1704.5,436.7z"/>
		<path class="st1" d="M1705.5,435.5c9.7,7.4,14.7,9.5,16,7.9c0,0,0.5-0.7,0.8-1.4c1.3-3.1,0.6-4.2,0.6-4.2c-0.8,1.9-6,1.5-17.1-3.1
			L1705.5,435.5z"/>
	</g>
	<circle class="st1" cx="1701.9" cy="433.7" r="8.5"/>
	<path class="st2" d="M1701.9,443.4c-5.4,0-9.8-4.4-9.8-9.8c0-5.4,4.4-9.8,9.8-9.8s9.8,4.4,9.8,9.8
		C1711.7,439.1,1707.3,443.4,1701.9,443.4z M1701.9,427.4c-3.4,0-6.2,2.8-6.2,6.2s2.8,6.2,6.2,6.2s6.2-2.8,6.2-6.2
		S1705.3,427.4,1701.9,427.4z"/>
	<path class="st1" d="M1733.9,433.7c0,17.7-14.3,32-32,32s-32-14.3-32-32c0-17.7,14.3-32,32-32S1733.9,416,1733.9,433.7z
		 M1701.9,409.2c-13.5,0-24.5,11-24.5,24.5s11,24.5,24.5,24.5c13.5,0,24.5-11,24.5-24.5S1715.4,409.2,1701.9,409.2z"/>
</g>
<g>
	<text transform="matrix(1 0 0 1 1745.5808 448.4365)"><tspan x="0" y="0" class="st0" style="font-family:'Raleway-Medium'; font-size:56px;">content</tspan><tspan x="203.2" y="0" class="st1" style="font-family:'Raleway-Medium'; font-size:56px;">jet</tspan></text>
</g>
<g>
	<g>
		<path class="st1" d="M1706,542.9c11.8,3.1,17.2,3.1,17.8,1.1c0,0,0.2-0.8,0.2-1.6c0-3.4-1-4.1-1-4.1c0,2-5,3.7-17,3.7L1706,542.9z
			"/>
		<path class="st1" d="M1705.9,541.3c12.1-1.6,17.1-3.7,16.8-5.7c0,0-0.2-0.8-0.4-1.5c-1.3-3.1-2.5-3.4-2.5-3.4
			c0.8,1.9-3.2,5.3-14.3,9.9L1705.9,541.3z"/>
		<path class="st1" d="M1705.1,539.9c10.5-6.1,14.4-10,13.4-11.8c0,0-0.5-0.7-1-1.2c-2.4-2.4-3.6-2.2-3.6-2.2
			c1.4,1.4-0.9,6.1-9.4,14.6L1705.1,539.9z"/>
		<path class="st1" d="M1703.9,538.9c7.4-9.7,9.5-14.7,7.9-16c0,0-0.7-0.5-1.4-0.8c-3.1-1.3-4.2-0.6-4.2-0.6c1.9,0.8,1.5,6-3.1,17.1
			L1703.9,538.9z"/>
		<path class="st1" d="M1702.4,538.5c3.1-11.8,3.1-17.2,1.1-17.8c0,0-0.8-0.2-1.6-0.2c-3.4,0-4.1,1-4.1,1c2,0,3.7,5,3.7,17
			L1702.4,538.5z"/>
		<path class="st1" d="M1700.8,538.6c-1.6-12.1-3.7-17.1-5.7-16.8c0,0-0.8,0.2-1.5,0.4c-3.1,1.3-3.4,2.5-3.4,2.5
			c1.9-0.8,5.3,3.2,9.9,14.3L1700.8,538.6z"/>
		<path class="st1" d="M1699.4,539.3c-6.1-10.5-10-14.4-11.8-13.4c0,0-0.7,0.5-1.2,1c-2.4,2.4-2.2,3.6-2.2,3.6
			c1.4-1.4,6.1,0.9,14.6,9.4L1699.4,539.3z"/>
		<path class="st1" d="M1698.4,540.6c-9.7-7.4-14.7-9.5-16-7.9c0,0-0.5,0.7-0.8,1.4c-1.3,3.1-0.6,4.2-0.6,4.2
			c0.8-1.9,6-1.5,17.1,3.1L1698.4,540.6z"/>
		<path class="st1" d="M1697.9,542.1c-11.8-3.1-17.2-3.1-17.8-1.1c0,0-0.2,0.8-0.2,1.6c0,3.4,1,4.1,1,4.1c0-2,5-3.7,17-3.7
			L1697.9,542.1z"/>
		<path class="st1" d="M1698,543.7c-12.1,1.6-17.1,3.7-16.8,5.7c0,0,0.2,0.8,0.4,1.5c1.3,3.1,2.5,3.4,2.5,3.4
			c-0.8-1.9,3.2-5.3,14.3-9.9L1698,543.7z"/>
		<path class="st1" d="M1698.8,545.1c-10.5,6.1-14.4,10-13.4,11.8c0,0,0.5,0.7,1,1.2c2.4,2.4,3.6,2.2,3.6,2.2
			c-1.4-1.4,0.9-6.1,9.4-14.6L1698.8,545.1z"/>
		<path class="st1" d="M1700,546.1c-7.4,9.7-9.5,14.7-7.9,16c0,0,0.7,0.5,1.4,0.8c3.1,1.3,4.2,0.6,4.2,0.6c-1.9-0.8-1.5-6,3.1-17.1
			L1700,546.1z"/>
		<path class="st1" d="M1701.5,546.6c-3.1,11.8-3.1,17.2-1.1,17.8c0,0,0.8,0.2,1.6,0.2c3.4,0,4.1-1,4.1-1c-2,0-3.7-5-3.7-17
			L1701.5,546.6z"/>
		<path class="st1" d="M1703.1,546.4c1.6,12.1,3.7,17.1,5.7,16.8c0,0,0.8-0.2,1.5-0.4c3.1-1.3,3.4-2.5,3.4-2.5
			c-1.9,0.8-5.3-3.2-9.9-14.3L1703.1,546.4z"/>
		<path class="st1" d="M1704.5,545.7c6.1,10.5,10,14.4,11.8,13.4c0,0,0.7-0.5,1.2-1c2.4-2.4,2.2-3.6,2.2-3.6
			c-1.4,1.4-6.1-0.9-14.6-9.4L1704.5,545.7z"/>
		<path class="st1" d="M1705.5,544.5c9.7,7.4,14.7,9.5,16,7.9c0,0,0.5-0.7,0.8-1.4c1.3-3.1,0.6-4.2,0.6-4.2c-0.8,1.9-6,1.5-17.1-3.1
			L1705.5,544.5z"/>
	</g>
	<circle class="st1" cx="1701.9" cy="542.7" r="8.5"/>
	<path class="st2" d="M1701.9,552.4c-5.4,0-9.8-4.4-9.8-9.8s4.4-9.8,9.8-9.8s9.8,4.4,9.8,9.8S1707.3,552.4,1701.9,552.4z
		 M1701.9,536.4c-3.4,0-6.2,2.8-6.2,6.2s2.8,6.2,6.2,6.2s6.2-2.8,6.2-6.2S1705.3,536.4,1701.9,536.4z"/>
	<path class="st1" d="M1733.9,542.7c0,17.7-14.3,32-32,32s-32-14.3-32-32s14.3-32,32-32S1733.9,525,1733.9,542.7z M1701.9,518.2
		c-13.5,0-24.5,11-24.5,24.5c0,13.5,11,24.5,24.5,24.5c13.5,0,24.5-11,24.5-24.5C1726.4,529.1,1715.4,518.2,1701.9,518.2z"/>
</g>
<g>
	<text transform="matrix(1 0 0 1 1745.5808 557.4365)"><tspan x="0" y="0" class="st0" style="font-family:'Raleway-Regular'; font-size:56px;">content</tspan><tspan x="199.7" y="0" class="st1" style="font-family:'Raleway-SemiBoldItalic'; font-size:56px;">jet</tspan></text>
</g>
<g id="Turbine">
</g>
<g id="ContentJet">
</g>
<use xlink:href="#Turbine_2_"  width="64" height="64" x="-32" y="-32" transform="matrix(1 0 0 -1 -277.1055 182.6763)" style="overflow:visible;"/>
<use xlink:href="#ContentJet_2_"  width="280" height="58" id="XMLID_1_" x="-140" y="-29" transform="matrix(1 0 0 -1 -94.1821 183.3145)" style="overflow:visible;"/>
<use xlink:href="#Turbine_2_"  width="64" height="64" x="-32" y="-32" transform="matrix(1 0 0 -1 -383.0002 32.0002)" style="overflow:visible;"/>
<use xlink:href="#ContentJet_2_"  width="280" height="58" id="XMLID_2_" x="-140" y="-29" transform="matrix(1 0 0 -1 -200.0769 32.6384)" style="overflow:visible;"/>
<g id="Turbine_1_">
	<path class="st2" d="M32,25.8c-3.4,0-6.2,2.8-6.2,6.2s2.8,6.2,6.2,6.2s6.2-2.8,6.2-6.2S35.4,25.8,32,25.8z"/>
	<path class="st2" d="M64,32c0,17.7-14.3,32-32,32S0,49.7,0,32S14.3,0,32,0S64,14.3,64,32z M32,7.5C18.5,7.5,7.5,18.5,7.5,32
		s11,24.5,24.5,24.5s24.5-11,24.5-24.5S45.5,7.5,32,7.5z"/>
	<path class="st2" d="M24.8,25.4c0.5-0.6,1.1-1.1,1.8-1.5c-4.5-6.9-7.4-9.4-8.8-8.6c0,0-0.7,0.5-1.2,1c-2.4,2.4-2.2,3.6-2.2,3.6
		C15.5,18.7,18.9,20.1,24.8,25.4z M27.8,23.2c0.7-0.3,1.4-0.6,2.2-0.7c-1.5-8.1-3.2-11.6-4.9-11.4c0,0-0.8,0.2-1.5,0.4
		c-3.1,1.3-3.4,2.5-3.4,2.5C21.8,13.4,24.4,16,27.8,23.2z M53,27.7c0,1.7-3.4,3.1-11.3,3.5c0,0.3,0,0.5,0,0.8c0,0.5-0.1,1.1-0.1,1.6
		c8,1.7,11.8,1.4,12.2-0.2c0,0,0.2-0.8,0.2-1.6C54,28.4,53,27.7,53,27.7z M31.5,22.3c0.2,0,0.4,0,0.5,0c0.6,0,1.2,0.1,1.8,0.2
		c1.8-8.1,1.5-12-0.2-12.4c0,0-0.8-0.2-1.6-0.2c-3.4,0-4.1,1-4.1,1C29.6,10.8,31,14.3,31.5,22.3z M40.7,27.6
		c0.4,0.7,0.6,1.4,0.8,2.2c8.1-1.5,11.5-3.2,11.3-4.9c0,0-0.2-0.8-0.4-1.5c-1.3-3.1-2.5-3.4-2.5-3.4C50.5,21.5,47.9,24.2,40.7,27.6z
		 M37.3,23.8c4.7-6.8,5.9-10.5,4.6-11.5c0,0-0.7-0.5-1.4-0.8c-3.1-1.3-4.2-0.6-4.2-0.6c1.5,0.6,1.5,4.4-1.1,11.9
		C35.9,23,36.6,23.4,37.3,23.8z M22.3,32.4c0-0.1,0-0.3,0-0.4c0-0.7,0.1-1.3,0.2-1.9c-7.9-1.7-11.8-1.4-12.2,0.2
		c0,0-0.2,0.8-0.2,1.6c0,3.4,1,4.1,1,4.1C11.1,34.3,14.4,32.9,22.3,32.4z M38.4,24.6c0.6,0.5,1.1,1.1,1.6,1.7
		c6.9-4.5,9.5-7.4,8.6-8.9c0,0-0.5-0.7-1-1.2c-2.4-2.4-3.6-2.2-3.6-2.2C45.2,15.3,43.7,18.7,38.4,24.6z M22.8,28.7
		c0.3-0.7,0.6-1.5,1.1-2.1c-6.7-4.7-10.4-5.8-11.4-4.5c0,0-0.5,0.7-0.8,1.4c-1.3,3.1-0.6,4.2-0.6,4.2C11.7,26.1,15.4,26.1,22.8,28.7
		z M36.4,40.7c-0.7,0.4-1.5,0.6-2.3,0.8c1.5,7.9,3.2,11.3,4.8,11.1c0,0,0.8-0.2,1.5-0.4c3.1-1.3,3.4-2.5,3.4-2.5
		C42.3,50.3,39.8,47.7,36.4,40.7z M39.4,38.3c-0.5,0.6-1.1,1.1-1.8,1.6c4.4,6.8,7.3,9.2,8.7,8.4c0,0,0.7-0.5,1.2-1
		c2.4-2.4,2.2-3.6,2.2-3.6C48.6,44.9,45.3,43.6,39.4,38.3z M41.3,35c-0.2,0.8-0.6,1.5-1,2.2c6.7,4.6,10.3,5.8,11.3,4.5
		c0,0,0.5-0.7,0.8-1.4c1.3-3.1,0.6-4.2,0.6-4.2C52.4,37.6,48.7,37.6,41.3,35z M23.2,36.2c-0.3-0.7-0.6-1.5-0.8-2.3
		c-8,1.5-11.3,3.2-11.1,4.8c0,0,0.2,0.8,0.4,1.5c1.3,3.1,2.5,3.4,2.5,3.4C13.6,42.1,16.2,39.6,23.2,36.2z M32.7,41.7
		c-0.2,0-0.4,0-0.7,0c-0.6,0-1.2-0.1-1.8-0.2c-1.7,7.9-1.4,11.6,0.2,12.1c0,0,0.8,0.2,1.6,0.2c3.4,0,4.1-1,4.1-1
		C34.5,52.8,33.1,49.5,32.7,41.7z M25.5,39.2c-0.6-0.5-1.1-1.1-1.6-1.8c-6.8,4.4-9.2,7.3-8.4,8.7c0,0,0.5,0.7,1,1.2
		c2.4,2.4,3.6,2.2,3.6,2.2C18.9,48.4,20.3,45.1,25.5,39.2z M26.7,40.2c-4.6,6.6-5.7,10.2-4.4,11.2c0,0,0.7,0.5,1.4,0.8
		c3.1,1.3,4.2,0.6,4.2,0.6c-1.5-0.6-1.5-4.2,1-11.6C28,41,27.3,40.6,26.7,40.2z"/>
</g>
<g id="ContentJet_1_">
	<path class="st2" d="M97.2,18.9c1.9,1.2,3,2.7,3,4.5c0,2.1-1.5,3.3-3.4,3.3c-1.9,0-3.5-1-3.5-2.9c0-1.7,1.2-2.8,2.7-3.2
		c-0.8-1.4-3.3-2-5.7-2c-4.2,0-9.1,2.8-9.1,13.8c0,10.3,4.3,13.8,9.2,13.8c3.3,0,7-1.6,9.3-6l1.2,0.4c-1.3,3.8-4.9,8.1-11.7,8.1
		c-7.9,0-14.1-5.8-14.1-15.4c0-9.5,6.1-16.1,14.9-16.1C92.5,17,95.2,17.7,97.2,18.9z"/>
	<path class="st2" d="M133.7,32.8c0,11.1-6.4,15.7-14.5,15.7c-8.1,0-14.5-4.6-14.5-15.7c0-11.2,6.4-15.8,14.5-15.8
		C127.3,17,133.7,21.7,133.7,32.8z M110.9,32.8c0,10.1,3.5,14.2,8.3,14.2c4.9,0,8.3-4.1,8.3-14.2c0-10.1-3.4-14.2-8.3-14.2
		C114.4,18.6,110.9,22.7,110.9,32.8z"/>
	<path class="st2" d="M165.5,19.2c1.6,1.6,2.2,3.7,2.2,7.6v15.5c0,3.2,1.3,4.2,4.9,4.2v1.2c-1.5-0.1-4.9-0.2-7.7-0.2
		c-2.8,0-5.8,0.2-7.1,0.2v-1.2c3.1,0,4.2-0.9,4.2-4.2V25.6c0-3.6-0.6-5.7-5.2-5.7c-5.4,0-8.9,3.6-8.9,9.6v12.9
		c0,3.2,1.2,4.2,4.2,4.2v1.2c-1.3-0.1-4.4-0.2-7.2-0.2c-2.8,0-6.2,0.2-7.7,0.2v-1.2c3.5,0,4.9-0.9,4.9-4.2V24.2
		c0-3.5-1.2-5.1-4.9-5.1v-1.2c1.3,0.1,2.7,0.2,4,0.2c2.5,0,4.8-0.2,6.6-0.8V24c2.2-5.2,6.5-7,10.9-7C162,17,164,17.8,165.5,19.2z"/>
	<path class="st2" d="M193.8,17.9v1.7h-9.4v22c0,3.7,1.5,4.9,4.1,4.9c2.6,0,4.4-1.7,5.8-6.2l1.2,0.3c-0.9,4.5-3.1,8-8.3,8
		c-2.9,0-4.6-0.7-6-1.9c-1.9-1.7-2.5-4-2.5-8.1V19.6h-6.1v-1.7h6.1V9c2.1-0.1,4.1-0.3,5.7-0.8v9.7H193.8z"/>
	<path class="st2" d="M223.1,40.8c-1.4,3.9-5.6,7.8-11.9,7.8c-9.3,0-14.7-6.1-14.7-15c0-10.2,5.7-16.5,14.4-16.5
		c7.5,0,11.9,4,11.9,12.7h-19.9c-0.2,1.1-0.2,2.4-0.2,3.7c0,8,4.9,12.6,9.8,12.6c3.8,0,7.2-1.5,9.4-5.8L223.1,40.8z M202.8,28.5
		h13.9c0.2-5.7-1.8-9.3-6-9.3C206.9,19.2,203.5,21.2,202.8,28.5z"/>
	<path class="st2" d="M254.6,19.2c1.6,1.6,2.2,3.7,2.2,7.6v15.5c0,3.2,1.3,4.2,4.9,4.2v1.2c-1.5-0.1-4.9-0.2-7.7-0.2
		c-2.8,0-5.8,0.2-7.1,0.2v-1.2c3.1,0,4.2-0.9,4.2-4.2V25.6c0-3.6-0.6-5.7-5.2-5.7c-5.4,0-8.9,3.6-8.9,9.6v12.9
		c0,3.2,1.2,4.2,4.2,4.2v1.2c-1.3-0.1-4.4-0.2-7.2-0.2c-2.8,0-6.2,0.2-7.7,0.2v-1.2c3.5,0,4.9-0.9,4.9-4.2V24.2
		c0-3.5-1.2-5.1-4.9-5.1v-1.2c1.3,0.1,2.7,0.2,4,0.2c2.5,0,4.8-0.2,6.6-0.8V24c2.2-5.2,6.5-7,10.9-7C251.1,17,253.2,17.8,254.6,19.2
		z"/>
	<path class="st2" d="M296.9,44c0,5.4-0.5,10.7-3.4,14c-2,2.4-5,3.5-7.7,3.5c-1.4,0-2.7-0.3-3.6-0.9c-0.9-0.6-1.4-1.5-1.4-2.7
		c0-1.8,1.3-3,3.3-3c1.9,0,3.3,0.8,3.3,2.8c0,1.3-0.8,2.3-2.4,2.8c0.4,0.1,0.8,0.1,1.1,0.1c1.4,0,2.6-0.4,3.6-1.3
		c0.9-1,1.5-2.5,1.5-4.9V24.2c0-3.5-1.2-5.1-4.9-5.1v-1.2c1.3,0.1,2.7,0.2,4,0.2c2.5,0,4.8-0.2,6.6-0.8V44z M297.5,7.4
		c0,2-1.8,3.7-4.1,3.7c-2.2,0-4.1-1.7-4.1-3.7c0-2,1.9-3.7,4.1-3.7C295.6,3.7,297.5,5.3,297.5,7.4z"/>
	<path class="st2" d="M282.9,17.9v1.7h-9.4v22c0,3.7,1.5,4.9,4.1,4.9c2.6,0,4.4-1.7,5.8-6.2l1.2,0.3c-0.9,4.5-3.1,8-8.3,8
		c-2.9,0-4.6-0.7-6-1.9c-1.9-1.7-2.5-4-2.5-8.1V19.6h-6.1v-1.7h6.1V9c2.1-0.1,4.1-0.3,5.7-0.8v9.7H282.9z"/>
	<path class="st2" d="M353.2,17.9v1.7h-9.4v22c0,3.7,1.5,4.9,4.1,4.9c2.6,0,4.4-1.7,5.8-6.2l1.2,0.3c-0.9,4.5-3.1,8-8.3,8
		c-2.9,0-4.6-0.7-6-1.9c-1.9-1.7-2.5-4-2.5-8.1V19.6h-6.1v-1.7h6.1V9c2.1-0.1,4.1-0.3,5.7-0.8v9.7H353.2z"/>
	<path class="st2" d="M330.2,40.8c-1.4,3.9-5.6,7.8-11.9,7.8c-9.3,0-14.7-6.1-14.7-15c0-10.2,5.7-16.5,14.4-16.5
		c7.5,0,11.9,4,11.9,12.7H310c-0.2,1.1-0.2,2.4-0.2,3.7c0,8,4.9,12.6,9.8,12.6c3.8,0,7.2-1.5,9.4-5.8L330.2,40.8z M309.9,28.5h13.9
		c0.2-5.7-1.8-9.3-6-9.3C314,19.2,310.6,21.2,309.9,28.5z"/>
</g>
<g>
	<path class="st1" d="M2134.9,671.7h-10l2-21c0,0,1.1-2,3-2s3,2,3,2L2134.9,671.7z"/>
	<path class="st1" d="M2101.9,694.7v10l-21-2c0,0-2-1.1-2-3c0-1.9,2-3,2-3L2101.9,694.7z"/>
	<path class="st1" d="M2157.9,704.7v-10l21,2c0,0,2,1.1,2,3c0,1.9-2,3-2,3L2157.9,704.7z"/>
	<circle class="st2" cx="2129.9" cy="699.7" r="34.5"/>
	<g>
		<path class="st1" d="M2129.9,693.4c-3.4,0-6.2,2.8-6.2,6.2s2.8,6.2,6.2,6.2c3.4,0,6.2-2.8,6.2-6.2S2133.3,693.4,2129.9,693.4z"/>
		<path class="st1" d="M2161.9,699.7c0,17.7-14.3,32-32,32s-32-14.3-32-32s14.3-32,32-32S2161.9,682,2161.9,699.7z M2129.9,675.2
			c-13.5,0-24.5,11-24.5,24.5c0,13.5,11,24.5,24.5,24.5s24.5-11,24.5-24.5C2154.4,686.1,2143.4,675.2,2129.9,675.2z"/>
		<path class="st1" d="M2122.7,693.1c0.5-0.6,1.1-1.1,1.8-1.5c-4.5-6.9-7.4-9.4-8.8-8.6c0,0-0.7,0.5-1.2,1c-2.4,2.4-2.2,3.6-2.2,3.6
			C2113.4,686.4,2116.8,687.8,2122.7,693.1z M2125.7,690.9c0.7-0.3,1.4-0.6,2.2-0.7c-1.5-8.1-3.2-11.6-4.9-11.4c0,0-0.8,0.2-1.5,0.4
			c-3.1,1.3-3.4,2.5-3.4,2.5C2119.7,681,2122.3,683.7,2125.7,690.9z M2150.9,695.4c0,1.7-3.4,3.1-11.3,3.5c0,0.3,0,0.5,0,0.8
			c0,0.5-0.1,1.1-0.1,1.6c8,1.7,11.8,1.4,12.2-0.2c0,0,0.2-0.8,0.2-1.6C2151.9,696.1,2150.9,695.4,2150.9,695.4z M2129.4,689.9
			c0.2,0,0.4,0,0.5,0c0.6,0,1.2,0.1,1.8,0.2c1.8-8.1,1.5-12-0.2-12.4c0,0-0.8-0.2-1.6-0.2c-3.4,0-4.1,1-4.1,1
			C2127.5,678.5,2128.9,682,2129.4,689.9z M2138.6,695.3c0.4,0.7,0.6,1.4,0.8,2.2c8.1-1.5,11.5-3.2,11.3-4.9c0,0-0.2-0.8-0.4-1.5
			c-1.3-3.1-2.5-3.4-2.5-3.4C2148.4,689.2,2145.8,691.8,2138.6,695.3z M2135.2,691.5c4.7-6.8,5.9-10.5,4.6-11.5c0,0-0.7-0.5-1.4-0.8
			c-3.1-1.3-4.2-0.6-4.2-0.6c1.5,0.6,1.5,4.4-1.1,11.9C2133.8,690.7,2134.5,691,2135.2,691.5z M2120.2,700.1c0-0.1,0-0.3,0-0.4
			c0-0.7,0.1-1.3,0.2-1.9c-7.9-1.7-11.8-1.4-12.2,0.2c0,0-0.2,0.8-0.2,1.6c0,3.4,1,4.1,1,4.1C2109,702,2112.3,700.6,2120.2,700.1z
			 M2136.3,692.3c0.6,0.5,1.1,1.1,1.6,1.7c6.9-4.5,9.5-7.4,8.6-8.9c0,0-0.5-0.7-1-1.2c-2.4-2.4-3.6-2.2-3.6-2.2
			C2143.1,682.9,2141.6,686.4,2136.3,692.3z M2120.7,696.3c0.3-0.7,0.6-1.5,1.1-2.1c-6.7-4.7-10.4-5.8-11.4-4.5c0,0-0.5,0.7-0.8,1.4
			c-1.3,3.1-0.6,4.2-0.6,4.2C2109.6,693.7,2113.3,693.7,2120.7,696.3z M2134.3,708.4c-0.7,0.4-1.5,0.6-2.3,0.8
			c1.5,7.9,3.2,11.3,4.8,11.1c0,0,0.8-0.2,1.5-0.4c3.1-1.3,3.4-2.5,3.4-2.5C2140.2,718,2137.7,715.4,2134.3,708.4z M2137.3,706
			c-0.5,0.6-1.1,1.1-1.8,1.6c4.4,6.8,7.3,9.2,8.7,8.4c0,0,0.7-0.5,1.2-1c2.4-2.4,2.2-3.6,2.2-3.6
			C2146.5,712.6,2143.2,711.2,2137.3,706z M2139.2,702.7c-0.2,0.8-0.6,1.5-1,2.2c6.7,4.6,10.3,5.8,11.3,4.5c0,0,0.5-0.7,0.8-1.4
			c1.3-3.1,0.6-4.2,0.6-4.2C2150.3,705.3,2146.6,705.3,2139.2,702.7z M2121.1,703.8c-0.3-0.7-0.6-1.5-0.8-2.3
			c-8,1.5-11.3,3.2-11.1,4.8c0,0,0.2,0.8,0.4,1.5c1.3,3.1,2.5,3.4,2.5,3.4C2111.5,709.8,2114.1,707.2,2121.1,703.8z M2130.6,709.4
			c-0.2,0-0.4,0-0.7,0c-0.6,0-1.2-0.1-1.8-0.2c-1.7,7.9-1.4,11.6,0.2,12.1c0,0,0.8,0.2,1.6,0.2c3.4,0,4.1-1,4.1-1
			C2132.4,720.5,2131,717.2,2130.6,709.4z M2123.4,706.9c-0.6-0.5-1.1-1.1-1.6-1.8c-6.8,4.4-9.2,7.3-8.4,8.7c0,0,0.5,0.7,1,1.2
			c2.4,2.4,3.6,2.2,3.6,2.2C2116.8,716.1,2118.2,712.7,2123.4,706.9z M2124.5,707.8c-4.6,6.6-5.7,10.2-4.4,11.2c0,0,0.7,0.5,1.4,0.8
			c3.1,1.3,4.2,0.6,4.2,0.6c-1.5-0.6-1.5-4.2,1-11.6C2125.9,708.6,2125.2,708.3,2124.5,707.8z"/>
	</g>
</g>
<use xlink:href="#Turbine_2_"  width="64" height="64" x="-32" y="-32" transform="matrix(5.625 0 0 -5.625 -215.0012 -268.999)" style="overflow:visible;"/>
</svg>
