<?xml version="1.0" standalone="no"?>
<!DOCTYPE svg PUBLIC "-//W3C//DTD SVG 20010904//EN"
 "http://www.w3.org/TR/2001/REC-SVG-20010904/DTD/svg10.dtd">
<svg version="1.0" xmlns="http://www.w3.org/2000/svg"
 width="700.000000pt" height="700.000000pt" viewBox="0 0 700.000000 700.000000"
 preserveAspectRatio="xMidYMid meet">
<metadata>
Created by potrace 1.11, written by Peter Selinger 2001-2013
</metadata>
<g transform="translate(0.000000,700.000000) scale(0.100000,-0.100000)"
fill="#000000" stroke="none">
<path d="M3299 6646 c-2 -2 -38 -7 -80 -10 -67 -5 -196 -21 -246 -30 -10 -2
-38 -7 -63 -11 -25 -3 -58 -10 -75 -15 -16 -5 -41 -11 -55 -14 -233 -45 -622
-198 -851 -335 -15 -9 -51 -30 -81 -48 -282 -166 -638 -487 -837 -753 -31 -41
-59 -77 -62 -80 -11 -10 -126 -186 -168 -258 -164 -281 -283 -585 -357 -907
-16 -70 -54 -316 -61 -391 -10 -117 -10 -477 0 -579 78 -799 439 -1524 1018
-2044 126 -114 141 -126 229 -192 472 -351 1011 -558 1605 -616 101 -10 466
-10 565 -1 639 63 1200 290 1700 686 198 158 457 438 612 662 255 369 445 835
513 1255 33 208 40 299 40 535 0 273 -18 450 -71 685 -132 591 -417 1110 -843
1536 -319 318 -655 540 -1066 706 -217 87 -523 168 -735 193 -52 6 -108 13
-125 16 -36 6 -500 15 -506 10z m476 -750 c17 -3 48 -8 70 -10 256 -32 570
-138 820 -277 430 -239 779 -606 995 -1044 83 -169 160 -378 185 -503 2 -9 11
-53 20 -97 18 -85 19 -91 32 -200 16 -138 9 -521 -12 -626 -6 -27 -12 -62 -21
-111 -16 -97 -84 -325 -131 -439 -41 -100 -158 -319 -220 -413 -403 -606
-1027 -988 -1753 -1074 -129 -15 -524 -7 -623 14 -12 2 -38 7 -57 10 -191 31
-435 111 -635 209 -531 260 -942 696 -1170 1240 -73 173 -140 416 -161 579 -3
23 -8 52 -11 66 -9 44 -11 463 -3 525 5 33 12 83 15 110 38 308 183 683 377
976 391 590 1052 995 1738 1065 30 3 56 7 58 9 6 6 454 -2 487 -9z"/>
<path d="M3457 5674 c-1 -1 -31 -4 -67 -5 -85 -4 -173 -24 -239 -56 -38 -18
-49 -28 -40 -34 8 -5 22 -9 32 -9 29 0 99 -82 133 -158 48 -105 88 -248 119
-431 9 -56 35 -270 41 -346 4 -44 8 -91 9 -105 2 -14 3 -36 4 -50 1 -24 4 -25
77 -28 42 -1 93 -6 114 -11 l38 -8 35 186 c20 102 38 202 41 221 3 19 8 51 11
70 17 100 29 257 28 385 -1 238 -46 342 -158 365 -48 10 -172 20 -178 14z"/>
<path d="M3962 5588 l-33 -9 29 -29 c50 -49 66 -122 59 -274 -3 -72 -8 -144
-12 -161 -3 -16 -12 -64 -20 -105 -9 -41 -17 -85 -19 -96 -9 -44 -86 -312
-116 -398 -33 -98 -36 -116 -19 -116 6 0 52 -20 102 -45 49 -25 91 -44 92 -43
5 6 186 284 203 313 11 17 27 44 37 60 78 125 184 343 221 452 35 103 42 215
17 263 -51 99 -410 224 -541 188z"/>
<path d="M2735 5545 c-170 -51 -339 -157 -381 -238 l-15 -27 32 5 c69 12 193
-76 304 -215 109 -138 225 -329 346 -573 47 -93 68 -127 79 -123 27 8 195 70
199 73 5 4 -44 244 -84 404 -115 466 -241 706 -373 713 -20 1 -68 -7 -107 -19z"/>
<path d="M4690 5252 c0 -4 5 -13 11 -19 17 -17 19 -117 4 -167 -51 -169 -214
-416 -478 -725 l-98 -115 54 -55 c29 -31 65 -70 79 -88 l26 -32 128 88 c245
166 407 292 533 414 172 168 232 288 183 370 -47 81 -184 213 -287 278 -69 44
-155 72 -155 51z"/>
<path d="M2088 5130 c-93 -62 -237 -222 -283 -315 -24 -51 -47 -143 -28 -119
26 34 106 43 184 19 133 -39 335 -160 549 -328 63 -50 117 -94 120 -97 3 -4
40 -37 83 -73 l78 -67 37 39 c20 21 61 54 89 74 l53 35 -107 154 c-102 147
-204 285 -249 338 -12 14 -49 58 -83 98 -78 91 -214 210 -275 240 -70 35 -116
36 -168 2z"/>
<path d="M5267 4629 c-20 -167 -274 -374 -765 -622 -109 -55 -141 -75 -136
-87 4 -8 21 -57 38 -108 l31 -93 35 5 c60 10 94 17 130 26 19 5 51 12 70 15
65 11 284 67 390 100 289 89 451 186 481 285 8 28 7 49 -5 95 -9 33 -18 67
-20 75 -19 73 -130 264 -182 311 -62 54 -61 54 -67 -2z"/>
<path d="M1698 4525 c-1 -2 -16 -5 -33 -7 -47 -6 -72 -25 -108 -81 -74 -117
-129 -288 -130 -407 0 -42 2 -81 6 -87 4 -7 20 2 42 23 20 18 55 39 78 46 46
14 229 17 317 6 71 -10 270 -52 339 -73 30 -9 63 -18 74 -21 10 -2 84 -25 165
-51 82 -27 147 -44 149 -38 2 6 25 53 51 106 l49 96 -110 73 c-356 236 -644
382 -803 406 -22 3 -49 7 -61 9 -12 2 -23 2 -25 0z"/>
<path d="M3353 4091 c-284 -77 -469 -322 -459 -610 8 -240 144 -440 369 -541
321 -144 710 39 820 385 31 97 31 251 0 350 -60 190 -214 346 -403 406 -94 31
-235 35 -327 10z"/>
<path d="M5564 3901 c7 -11 -40 -81 -67 -101 -76 -56 -241 -118 -382 -146 -61
-12 -135 -24 -175 -29 -25 -3 -58 -7 -75 -10 -58 -9 -180 -21 -315 -30 -46 -4
-87 -8 -90 -10 -8 -5 -12 -235 -3 -236 4 -1 17 -3 28 -4 11 -1 54 -10 95 -18
78 -16 229 -43 290 -51 19 -3 53 -7 75 -10 22 -3 60 -8 85 -12 101 -13 357
-12 427 1 84 16 146 46 169 80 36 55 47 183 30 347 -12 111 -56 238 -83 238
-8 0 -12 -4 -9 -9z"/>
<path d="M1570 3788 c-88 -12 -164 -48 -189 -90 -58 -95 -42 -412 27 -541 l26
-48 21 44 c11 25 34 57 50 71 84 76 346 160 595 191 25 3 59 7 75 10 37 6 95
12 200 21 44 3 91 8 105 10 14 1 34 3 45 3 17 1 20 8 21 49 1 26 5 77 9 115 4
37 3 67 -1 68 -33 3 -58 8 -124 22 -90 20 -292 53 -375 62 -33 4 -76 9 -95 12
-65 9 -325 10 -390 1z"/>
<path d="M2509 3306 c-3 -3 -18 -7 -34 -10 -431 -76 -839 -219 -953 -333 -64
-64 -69 -93 -38 -203 37 -136 122 -286 200 -356 26 -24 51 -44 55 -44 4 0 5
15 3 33 -11 95 106 226 343 386 55 37 107 70 115 74 8 4 24 13 35 20 60 37
193 109 288 157 78 40 107 59 103 70 -61 188 -71 210 -92 210 -11 0 -23 -2
-25 -4z"/>
<path d="M4404 3178 c-4 -13 -25 -61 -47 -108 -26 -54 -36 -85 -28 -88 6 -2
17 -9 24 -16 19 -18 252 -167 357 -228 413 -240 646 -297 728 -181 95 135 168
397 140 503 -10 34 -10 34 -26 13 -68 -84 -252 -98 -537 -39 -170 36 -294 70
-479 131 -57 19 -108 35 -114 35 -6 0 -14 -10 -18 -22z"/>
<path d="M2572 2881 c-459 -313 -701 -554 -708 -709 -2 -36 4 -50 38 -93 116
-148 318 -299 399 -299 18 0 19 2 4 30 -65 125 93 429 435 839 l121 145 -43
40 c-24 23 -60 62 -79 88 l-36 47 -131 -88z"/>
<path d="M4209 2858 c-8 -11 -46 -49 -86 -83 l-71 -63 86 -129 c316 -467 568
-716 719 -709 31 2 53 12 86 39 95 78 192 184 240 264 54 89 74 178 33 144 -7
-6 -33 -13 -57 -15 -153 -12 -450 160 -809 470 -58 49 -110 93 -116 97 -6 3
-17 -3 -25 -15z"/>
<path d="M2879 2542 c-263 -402 -380 -654 -381 -822 -1 -91 26 -127 139 -184
164 -82 355 -123 428 -91 17 7 24 14 18 14 -17 1 -61 69 -73 112 -18 58 -13
235 10 364 23 132 85 380 130 520 47 145 47 142 8 150 -18 4 -65 25 -104 46
-39 21 -73 39 -75 39 -2 0 -47 -67 -100 -148z"/>
<path d="M3885 2621 c-22 -9 -71 -26 -108 -36 l-68 -18 7 -41 c10 -61 13 -76
18 -94 3 -9 8 -33 11 -52 3 -19 24 -105 45 -191 114 -453 235 -690 365 -713
38 -7 188 35 269 76 88 44 144 84 201 142 l49 51 -50 6 c-72 9 -128 42 -208
122 -119 120 -259 335 -406 620 -41 81 -77 147 -80 147 -3 0 -23 -9 -45 -19z"/>
<path d="M3320 2551 c0 -6 0 -13 -1 -16 -1 -2 -5 -24 -11 -47 -5 -24 -12 -54
-14 -68 -3 -14 -13 -72 -24 -130 -17 -94 -26 -158 -45 -300 -11 -85 -13 -325
-4 -399 12 -91 52 -179 94 -202 100 -58 431 -36 554 35 l34 20 -40 17 c-59 25
-102 83 -153 204 -21 50 -63 205 -76 285 -3 14 -9 48 -14 75 -5 28 -12 78 -15
113 -4 35 -8 72 -10 83 -2 10 -6 54 -9 97 -10 136 -18 217 -22 221 -2 2 -27 5
-56 7 -29 1 -83 5 -120 9 -45 4 -68 3 -68 -4z"/>
</g>
</svg>
