<?xml version="1.0" encoding="utf-8"?>
<!-- Generator: Adobe Illustrator 19.1.0, SVG Export Plug-In . SVG Version: 6.00 Build 0)  -->
<svg version="1.1" id="Layer_1" xmlns="http://www.w3.org/2000/svg" xmlns:xlink="http://www.w3.org/1999/xlink" x="0px" y="0px"
	 viewBox="0 0 354.9 64" style="enable-background:new 0 0 354.9 64;" xml:space="preserve">
<style type="text/css">
	.st0{fill:#444444;}
	.st1{fill:#FD1655;}
	.st2{fill:#FFFFFF;}
</style>
<symbol  id="ContentJet_1_" viewBox="-140 -29 280 58">
	<path class="st0" d="M-117.7,13.7c1.9-1.2,3-2.7,3-4.5c0-2.1-1.5-3.3-3.4-3.3c-1.9,0-3.5,1-3.5,2.9c0,1.7,1.2,2.8,2.7,3.2
		c-0.8,1.4-3.3,2-5.7,2c-4.2,0-9.1-2.8-9.1-13.8c0-10.3,4.3-13.8,9.2-13.8c3.3,0,7,1.6,9.3,6l1.2-0.4c-1.3-3.8-4.9-8.1-11.7-8.1
		c-7.9,0-14.1,5.8-14.1,15.4c0,9.5,6.1,16.1,14.9,16.1C-122.4,15.6-119.8,15-117.7,13.7z"/>
	<path class="st0" d="M-81.2-0.2c0-11.1-6.4-15.7-14.5-15.7c-8.1,0-14.5,4.6-14.5,15.7c0,11.2,6.4,15.8,14.5,15.8
		C-87.6,15.6-81.2,11-81.2-0.2z M-104-0.2c0-10.1,3.5-14.2,8.3-14.2c4.9,0,8.3,4.1,8.3,14.2c0,10.1-3.4,14.2-8.3,14.2
		C-100.5,14.1-104,9.9-104-0.2z"/>
	<path class="st0" d="M-49.4,13.4c1.6-1.6,2.2-3.7,2.2-7.6V-9.7c0-3.2,1.3-4.2,4.9-4.2v-1.2c-1.5,0.1-4.9,0.2-7.7,0.2
		c-2.8,0-5.8-0.2-7.1-0.2v1.2c3.1,0,4.2,0.9,4.2,4.2V7.1c0,3.6-0.6,5.7-5.2,5.7c-5.4,0-8.9-3.6-8.9-9.6V-9.7c0-3.2,1.2-4.2,4.2-4.2
		v-1.2c-1.3,0.1-4.4,0.2-7.2,0.2c-2.8,0-6.2-0.2-7.7-0.2v1.2c3.5,0,4.9,0.9,4.9,4.2V8.5c0,3.5-1.2,5.1-4.9,5.1v1.2
		c1.3-0.1,2.7-0.2,4-0.2c2.5,0,4.8,0.2,6.6,0.8V8.6c2.2,5.2,6.5,7,10.9,7C-53,15.6-50.9,14.8-49.4,13.4z"/>
	<path class="st0" d="M-21.1,14.7v-1.7h-9.4v-22c0-3.7,1.5-4.9,4.1-4.9c2.6,0,4.4,1.7,5.8,6.2l1.2-0.3c-0.9-4.5-3.1-8-8.3-8
		c-2.9,0-4.6,0.7-6,1.9c-1.9,1.7-2.5,4-2.5,8.1v18.9h-6.1v1.7h6.1v8.9c2.1,0.1,4.1,0.3,5.7,0.8v-9.7H-21.1z"/>
	<path class="st0" d="M8.2-8.1C6.8-12,2.6-15.9-3.8-15.9c-9.3,0-14.7,6.1-14.7,15c0,10.2,5.7,16.5,14.4,16.5c7.5,0,11.9-4,11.9-12.7
		H-12c-0.2-1.1-0.2-2.4-0.2-3.7c0-8,4.9-12.6,9.8-12.6c3.8,0,7.2,1.5,9.4,5.8L8.2-8.1z M-12.1,4.2H1.8c0.2,5.7-1.8,9.3-6,9.3
		C-8.1,13.5-11.4,11.5-12.1,4.2z"/>
	<path class="st0" d="M39.7,13.4c1.6-1.6,2.2-3.7,2.2-7.6V-9.7c0-3.2,1.3-4.2,4.9-4.2v-1.2c-1.5,0.1-4.9,0.2-7.7,0.2
		c-2.8,0-5.8-0.2-7.1-0.2v1.2c3.1,0,4.2,0.9,4.2,4.2V7.1c0,3.6-0.6,5.7-5.2,5.7c-5.4,0-8.9-3.6-8.9-9.6V-9.7c0-3.2,1.2-4.2,4.2-4.2
		v-1.2c-1.3,0.1-4.4,0.2-7.2,0.2c-2.8,0-6.2-0.2-7.7-0.2v1.2c3.5,0,4.9,0.9,4.9,4.2V8.5c0,3.5-1.2,5.1-4.9,5.1v1.2
		c1.3-0.1,2.7-0.2,4-0.2c2.5,0,4.8,0.2,6.6,0.8V8.6c2.2,5.2,6.5,7,10.9,7C36.2,15.6,38.2,14.8,39.7,13.4z"/>
	<path class="st1" d="M82-11.4c0-5.4-0.5-10.7-3.4-14c-2-2.4-5-3.5-7.7-3.5c-1.4,0-2.7,0.3-3.6,0.9c-0.9,0.6-1.4,1.5-1.4,2.7
		c0,1.8,1.3,3,3.3,3c1.9,0,3.3-0.8,3.3-2.8c0-1.3-0.8-2.3-2.4-2.8c0.4-0.1,0.8-0.1,1.1-0.1c1.4,0,2.6,0.4,3.6,1.3
		c0.9,1,1.5,2.5,1.5,4.9V8.5c0,3.5-1.2,5.1-4.9,5.1v1.2c1.3-0.1,2.7-0.2,4-0.2c2.5,0,4.8,0.2,6.6,0.8V-11.4z M82.6,25.3
		c0-2-1.8-3.7-4.1-3.7c-2.2,0-4.1,1.7-4.1,3.7c0,2,1.9,3.7,4.1,3.7C80.7,29,82.6,27.3,82.6,25.3z"/>
	<path class="st0" d="M68,14.7v-1.7h-9.4v-22c0-3.7,1.5-4.9,4.1-4.9c2.6,0,4.4,1.7,5.8,6.2l1.2-0.3c-0.9-4.5-3.1-8-8.3-8
		c-2.9,0-4.6,0.7-6,1.9c-1.9,1.7-2.5,4-2.5,8.1v18.9h-6.1v1.7h6.1v8.9c2.1,0.1,4.1,0.3,5.7,0.8v-9.7H68z"/>
	<path class="st1" d="M138.3,14.7v-1.7h-9.4v-22c0-3.7,1.5-4.9,4.1-4.9c2.6,0,4.4,1.7,5.8,6.2l1.2-0.3c-0.9-4.5-3.1-8-8.3-8
		c-2.9,0-4.6,0.7-6,1.9c-1.9,1.7-2.5,4-2.5,8.1v18.9H117v1.7h6.1v8.9c2.1,0.1,4.1,0.3,5.7,0.8v-9.7H138.3z"/>
	<path class="st1" d="M115.3-8.1c-1.4-3.9-5.6-7.8-11.9-7.8c-9.3,0-14.7,6.1-14.7,15c0,10.2,5.7,16.5,14.4,16.5
		c7.5,0,11.9-4,11.9-12.7H95.1c-0.2-1.1-0.2-2.4-0.2-3.7c0-8,4.9-12.6,9.8-12.6c3.8,0,7.2,1.5,9.4,5.8L115.3-8.1z M95,4.2h13.9
		c0.2,5.7-1.8,9.3-6,9.3C99,13.5,95.7,11.5,95,4.2z"/>
</symbol>
<symbol  id="Turbine_1_" viewBox="-32 -32 64 64">
	<path class="st1" d="M0,6.2c-3.4,0-6.2-2.8-6.2-6.2S-3.4-6.2,0-6.2S6.2-3.4,6.2,0S3.4,6.2,0,6.2z"/>
	<path class="st1" d="M32,0c0-17.7-14.3-32-32-32S-32-17.7-32,0s14.3,32,32,32S32,17.7,32,0z M0,24.5c-13.5,0-24.5-11-24.5-24.5
		s11-24.5,24.5-24.5S24.5-13.5,24.5,0S13.5,24.5,0,24.5z"/>
	<path class="st1" d="M-7.2,6.6c0.5,0.6,1.1,1.1,1.8,1.5c-4.5,6.9-7.4,9.4-8.8,8.6c0,0-0.7-0.5-1.2-1c-2.4-2.4-2.2-3.6-2.2-3.6
		C-16.5,13.3-13.1,11.9-7.2,6.6z M-4.2,8.8C-3.5,9.1-2.7,9.4-2,9.6c-1.5,8.1-3.2,11.6-4.9,11.4c0,0-0.8-0.2-1.5-0.4
		c-3.1-1.3-3.4-2.5-3.4-2.5C-10.2,18.6-7.6,16-4.2,8.8z M21,4.3c0-1.7-3.4-3.1-11.3-3.5c0-0.3,0-0.5,0-0.8c0-0.5-0.1-1.1-0.1-1.6
		c8-1.7,11.8-1.4,12.2,0.2c0,0,0.2,0.8,0.2,1.6C22,3.6,21,4.3,21,4.3z M-0.5,9.7c0.2,0,0.4,0,0.5,0c0.6,0,1.2-0.1,1.8-0.2
		c1.8,8.1,1.5,12-0.2,12.4c0,0-0.8,0.2-1.6,0.2c-3.4,0-4.1-1-4.1-1C-2.4,21.2-1,17.7-0.5,9.7z M8.7,4.4C9.1,3.7,9.3,3,9.5,2.2
		C17.6,3.7,21,5.4,20.8,7.1c0,0-0.2,0.8-0.4,1.5c-1.3,3.1-2.5,3.4-2.5,3.4C18.5,10.5,15.9,7.8,8.7,4.4z M5.3,8.2
		C10,15,11.2,18.7,9.9,19.7c0,0-0.7,0.5-1.4,0.8c-3.1,1.3-4.2,0.6-4.2,0.6c1.5-0.6,1.5-4.4-1.1-11.9C3.9,9,4.6,8.6,5.3,8.2z
		 M-9.7-0.4c0,0.1,0,0.3,0,0.4c0,0.7,0.1,1.3,0.2,1.9c-7.9,1.7-11.8,1.4-12.2-0.2c0,0-0.2-0.8-0.2-1.6c0-3.4,1-4.1,1-4.1
		C-20.9-2.3-17.6-0.9-9.7-0.4z M6.4,7.4C7,6.8,7.5,6.3,8,5.6c6.9,4.5,9.5,7.4,8.6,8.9c0,0-0.5,0.7-1,1.2c-2.4,2.4-3.6,2.2-3.6,2.2
		C13.2,16.7,11.7,13.3,6.4,7.4z M-9.2,3.3c0.3,0.7,0.6,1.5,1.1,2.1c-6.7,4.7-10.4,5.8-11.4,4.5c0,0-0.5-0.7-0.8-1.4
		c-1.3-3.1-0.6-4.2-0.6-4.2C-20.3,5.9-16.6,5.9-9.2,3.3z M4.4-8.7C3.7-9.1,2.9-9.3,2.1-9.5C3.6-17.4,5.3-20.8,7-20.6
		c0,0,0.8,0.2,1.5,0.4c3.1,1.3,3.4,2.5,3.4,2.5C10.3-18.3,7.8-15.7,4.4-8.7z M7.4-6.3C6.9-6.9,6.3-7.5,5.6-8
		c4.4-6.8,7.3-9.2,8.7-8.4c0,0,0.7,0.5,1.2,1c2.4,2.4,2.2,3.6,2.2,3.6C16.6-12.9,13.3-11.6,7.4-6.3z M9.3-3C9-3.8,8.7-4.5,8.3-5.2
		c6.7-4.6,10.3-5.8,11.3-4.5c0,0,0.5,0.7,0.8,1.4C21.7-5.1,21-4.1,21-4.1C20.4-5.6,16.7-5.6,9.3-3z M-8.8-4.2
		c-0.3,0.7-0.6,1.5-0.8,2.3c-8-1.5-11.3-3.2-11.1-4.8c0,0,0.2-0.8,0.4-1.5c1.3-3.1,2.5-3.4,2.5-3.4C-18.4-10.1-15.8-7.6-8.8-4.2z
		 M0.7-9.7c-0.2,0-0.4,0-0.7,0c-0.6,0-1.2,0.1-1.8,0.2c-1.7-7.9-1.4-11.6,0.2-12.1c0,0,0.8-0.2,1.6-0.2c3.4,0,4.1,1,4.1,1
		C2.5-20.8,1.1-17.5,0.7-9.7z M-6.5-7.2c-0.6,0.5-1.1,1.1-1.6,1.8c-6.8-4.4-9.2-7.3-8.4-8.7c0,0,0.5-0.7,1-1.2
		c2.4-2.4,3.6-2.2,3.6-2.2C-13.1-16.4-11.7-13.1-6.5-7.2z M-5.3-8.2c-4.6-6.6-5.7-10.2-4.4-11.2c0,0,0.7-0.5,1.4-0.8
		c3.1-1.3,4.2-0.6,4.2-0.6c-1.5,0.6-1.5,4.2,1,11.6C-4-9-4.7-8.6-5.3-8.2z"/>
</symbol>
<g>
	<g>
		<path class="st0" d="M2214.5,365c-0.3-0.7-0.6-1.2-1.1-1.6s-1-0.7-1.6-0.9c-0.6-0.2-1.1-0.4-1.7-0.4c-0.6-0.1-1.1-0.1-1.4-0.1
			c-1.3,0-2.5,0.3-3.6,0.8c-1.1,0.5-2.1,1.3-2.9,2.3c-0.8,1-1.4,2.3-1.9,3.7c-0.5,1.5-0.7,3.2-0.7,5.1c0,1.9,0.2,3.6,0.7,5.2
			c0.5,1.6,1.1,2.9,2,4.1c0.8,1.1,1.9,2,3,2.7c1.2,0.6,2.5,1,3.9,1c0.9,0,1.7-0.1,2.6-0.4s1.7-0.6,2.4-1s1.5-0.9,2.1-1.5
			c0.6-0.6,1.2-1.2,1.7-1.9l1.4,1.1c-0.7,1.2-1.6,2.2-2.6,3c-1,0.8-2,1.5-3,2.1c-1,0.5-2.1,0.9-3.2,1.2s-2.1,0.4-3,0.4
			c-1.9,0-3.7-0.3-5.4-1s-3.1-1.6-4.4-2.8c-1.3-1.2-2.3-2.7-3-4.5c-0.7-1.8-1.1-3.8-1.1-6.1c0-1.3,0.2-2.6,0.5-3.8
			c0.3-1.3,0.8-2.5,1.4-3.6c0.6-1.1,1.3-2.2,2.2-3.2c0.9-1,1.8-1.8,2.9-2.5c1.1-0.7,2.3-1.3,3.6-1.7s2.6-0.6,4.1-0.6
			c1.6,0,3,0.2,4.2,0.6c1.3,0.4,2.4,0.9,3.3,1.5c0.9,0.6,1.6,1.4,2.1,2.2c0.5,0.8,0.7,1.7,0.7,2.6c0,0.8-0.2,1.5-0.7,2.1
			s-1.1,0.9-1.9,0.9c-0.5,0-0.9-0.1-1.2-0.2c-0.3-0.2-0.6-0.4-0.8-0.6s-0.3-0.5-0.4-0.8c-0.1-0.3-0.1-0.6-0.1-0.8
			c0-0.4,0.1-0.7,0.2-1.1C2214,365.7,2214.2,365.3,2214.5,365z"/>
		<path class="st0" d="M2237.5,359.9c2,0,3.8,0.4,5.5,1.1c1.7,0.7,3.2,1.7,4.5,3c1.3,1.3,2.3,2.8,3,4.5c0.7,1.7,1.1,3.6,1.1,5.6
			c0,2.2-0.4,4.2-1.1,6.1c-0.7,1.9-1.7,3.5-3,5s-2.8,2.5-4.5,3.3c-1.7,0.8-3.6,1.2-5.6,1.2c-2,0-3.8-0.4-5.5-1.1
			c-1.7-0.7-3.2-1.7-4.5-2.9c-1.3-1.3-2.3-2.8-3-4.5c-0.7-1.7-1.1-3.7-1.1-5.7c0-2.2,0.4-4.3,1.1-6.2c0.7-1.9,1.7-3.6,3-5
			c1.3-1.4,2.7-2.5,4.5-3.3C2233.7,360.3,2235.5,359.9,2237.5,359.9z M2237.5,362c-1.5,0-2.7,0.3-3.8,1c-1,0.7-1.9,1.5-2.6,2.6
			s-1.2,2.4-1.5,3.8c-0.3,1.4-0.5,2.9-0.5,4.4c0,1.7,0.2,3.4,0.5,5.1c0.4,1.6,0.9,3.1,1.6,4.4s1.6,2.3,2.7,3.1
			c1.1,0.8,2.4,1.2,3.9,1.2s2.7-0.3,3.7-1c1-0.7,1.8-1.5,2.5-2.6c0.6-1.1,1.1-2.3,1.4-3.8c0.3-1.4,0.4-2.8,0.4-4.3
			c0-1.7-0.2-3.3-0.5-5c-0.3-1.6-0.8-3.1-1.5-4.4c-0.7-1.3-1.5-2.3-2.6-3.1C2240.3,362.4,2239,362,2237.5,362z"/>
		<path class="st0" d="M2259.8,367.5c0-0.6,0-1.2,0-1.8c0-0.6,0.1-1.2,0.2-1.9l-4,0.2v-2.4c1.2,0,2.2,0,3-0.1
			c0.8-0.1,1.4-0.2,1.8-0.3s0.8-0.3,1.1-0.5c0.3-0.2,0.5-0.4,0.7-0.6h1.6c0,0.4,0.1,0.9,0.1,1.4c0,0.5,0.1,1.2,0.1,2
			c0.6-0.5,1.3-1,2-1.5c0.7-0.5,1.5-0.9,2.3-1.2c0.8-0.3,1.6-0.6,2.4-0.8c0.8-0.2,1.6-0.3,2.4-0.3c3.2,0,5.6,1,7.1,3.1
			s2.2,5.2,2.2,9.5v10.5c0,0.7,0,1.4,0,2c0,0.6-0.1,1.2-0.2,1.8l3.5-0.2v2.3h-11.4v-1.7c0.9,0,1.5-0.2,2-0.5s0.8-0.8,1-1.4
			s0.3-1.3,0.3-2.2s0-1.8,0-2.8v-7.8c0-3.2-0.6-5.7-1.6-7.3c-1-1.6-2.6-2.4-4.9-2.4c-0.7,0-1.3,0.1-2,0.3s-1.3,0.5-1.9,0.8
			c-0.6,0.3-1.2,0.7-1.8,1.1s-1,0.9-1.4,1.4c0,0.3,0,0.7,0,1.1c0,0.4,0,0.8,0,1.1l-0.1,14.3c0,0.7,0,1.4,0,2s-0.1,1.2-0.2,1.8
			l3.5-0.2v2.3h-11.4v-1.7c0.9,0,1.5-0.2,2-0.5c0.4-0.3,0.8-0.8,1-1.4c0.2-0.6,0.3-1.3,0.3-2.2s0.1-1.8,0.1-2.8L2259.8,367.5z"/>
		<path class="st0" d="M2288.6,360.8c1,0,1.9-0.3,2.7-0.8c0.8-0.5,1.5-1.2,2.1-1.9s1.1-1.6,1.5-2.5c0.4-0.9,0.7-1.8,1-2.6h1.9
			c0,1.5,0,2.9,0,4.2s0,2.5,0,3.7h9.4v2.2l-9.4,0.1c0,2.4,0,4.5,0,6.2s0,3.1,0,4.3s0,2.1,0,2.7c0,0.7,0,1.2,0,1.5c0,0.3,0,0.6,0,0.7
			s0,0.2,0,0.2c0,1.3,0.1,2.4,0.2,3.4c0.1,1,0.4,1.8,0.7,2.5c0.3,0.7,0.8,1.2,1.3,1.5c0.5,0.3,1.2,0.5,2,0.5c1,0,1.9-0.3,2.9-0.9
			c0.9-0.6,1.8-1.4,2.5-2.5l1.5,1.2c-0.8,1.2-1.6,2.2-2.4,2.9c-0.8,0.7-1.6,1.2-2.3,1.6s-1.4,0.6-2,0.7c-0.6,0.1-1.2,0.1-1.7,0.1
			c-0.6,0-1.1,0-1.7-0.1s-1.2-0.3-1.8-0.5c-0.6-0.3-1.1-0.6-1.6-1.1c-0.5-0.5-0.9-1.1-1.3-1.9c-0.4-0.8-0.7-1.7-0.9-2.8
			c-0.2-1.1-0.3-2.4-0.3-3.9l0.1-16.2l-4.3,0V360.8z"/>
		<path class="st0" d="M2337,372.3l-19.7,0.3c0,2.2,0.1,4.1,0.5,5.9c0.3,1.8,0.9,3.3,1.6,4.5c0.7,1.2,1.7,2.2,2.9,2.9
			c1.2,0.7,2.6,1,4.2,1c0.9,0,1.8-0.1,2.7-0.4c0.9-0.2,1.8-0.6,2.6-1c0.8-0.4,1.6-0.9,2.3-1.5c0.7-0.6,1.3-1.2,1.8-1.9l1.4,1.1
			c-0.8,1.2-1.7,2.2-2.7,3c-1,0.8-2.1,1.5-3.1,2c-1.1,0.5-2.2,0.9-3.3,1.1c-1.1,0.2-2.1,0.3-3.1,0.3c-1.9,0-3.7-0.3-5.4-1
			c-1.7-0.7-3.1-1.7-4.3-3c-1.2-1.3-2.2-2.9-2.9-4.7s-1.1-3.9-1.1-6.2c0-2,0.3-3.9,1-5.6c0.7-1.8,1.6-3.4,2.9-4.8s2.7-2.5,4.5-3.3
			c1.7-0.8,3.7-1.2,5.8-1.2c1.6,0,3,0.3,4.4,0.8c1.4,0.5,2.6,1.3,3.6,2.3c1,1,1.9,2.3,2.5,3.9C2336.7,368.4,2337,370.2,2337,372.3z
			 M2325.7,362.1c-2.2,0-4,0.6-5.4,1.9c-1.4,1.3-2.4,3.4-2.8,6.2h14.3c0-1-0.1-2-0.3-2.9c-0.2-1-0.6-1.8-1.1-2.6
			c-0.5-0.8-1.1-1.4-1.9-1.9C2327.7,362.4,2326.8,362.1,2325.7,362.1z"/>
		<path class="st0" d="M2345.3,367.5c0-0.6,0-1.2,0-1.8s0.1-1.2,0.2-1.9l-4,0.2v-2.4c1.2,0,2.2,0,3-0.1c0.8-0.1,1.4-0.2,1.8-0.3
			s0.8-0.3,1.1-0.5c0.3-0.2,0.5-0.4,0.7-0.6h1.6c0,0.4,0.1,0.9,0.1,1.4c0,0.5,0.1,1.2,0.1,2c0.6-0.5,1.3-1,2-1.5
			c0.7-0.5,1.5-0.9,2.3-1.2c0.8-0.3,1.6-0.6,2.4-0.8s1.6-0.3,2.4-0.3c3.2,0,5.6,1,7.1,3.1c1.5,2,2.2,5.2,2.2,9.5v10.5
			c0,0.7,0,1.4,0,2c0,0.6-0.1,1.2-0.2,1.8l3.5-0.2v2.3h-11.4v-1.7c0.9,0,1.5-0.2,2-0.5c0.4-0.3,0.8-0.8,1-1.4
			c0.2-0.6,0.3-1.3,0.3-2.2s0-1.8,0-2.8v-7.8c0-3.2-0.6-5.7-1.6-7.3c-1-1.6-2.6-2.4-4.9-2.4c-0.7,0-1.3,0.1-2,0.3s-1.3,0.5-1.9,0.8
			c-0.6,0.3-1.2,0.7-1.8,1.1c-0.5,0.4-1,0.9-1.4,1.4c0,0.3,0,0.7,0,1.1c0,0.4,0,0.8,0,1.1l-0.1,14.3c0,0.7,0,1.4,0,2
			c0,0.6-0.1,1.2-0.2,1.8l3.5-0.2v2.3H2342v-1.7c0.9,0,1.5-0.2,2-0.5s0.8-0.8,1-1.4s0.3-1.3,0.3-2.2s0.1-1.8,0.1-2.8L2345.3,367.5z"
			/>
		<path class="st0" d="M2374.2,360.8c1,0,1.9-0.3,2.7-0.8c0.8-0.5,1.5-1.2,2.1-1.9c0.6-0.8,1.1-1.6,1.5-2.5c0.4-0.9,0.7-1.8,1-2.6
			h1.9c0,1.5,0,2.9,0,4.2c0,1.3,0,2.5,0,3.7h9.4v2.2l-9.4,0.1c0,2.4,0,4.5,0,6.2s0,3.1,0,4.3c0,1.1,0,2.1,0,2.7c0,0.7,0,1.2,0,1.5
			c0,0.3,0,0.6,0,0.7s0,0.2,0,0.2c0,1.3,0.1,2.4,0.2,3.4c0.1,1,0.4,1.8,0.7,2.5c0.3,0.7,0.8,1.2,1.3,1.5s1.2,0.5,2,0.5
			c1,0,1.9-0.3,2.9-0.9s1.8-1.4,2.5-2.5l1.5,1.2c-0.8,1.2-1.6,2.2-2.4,2.9c-0.8,0.7-1.6,1.2-2.3,1.6c-0.7,0.4-1.4,0.6-2,0.7
			c-0.6,0.1-1.2,0.1-1.7,0.1c-0.6,0-1.1,0-1.7-0.1c-0.6-0.1-1.2-0.3-1.8-0.5c-0.6-0.3-1.1-0.6-1.6-1.1c-0.5-0.5-0.9-1.1-1.3-1.9
			c-0.4-0.8-0.7-1.7-0.9-2.8s-0.3-2.4-0.3-3.9l0.1-16.2l-4.3,0V360.8z"/>
		<path class="st1" d="M2390.9,400.9c0-0.7,0.2-1.3,0.7-1.8c0.4-0.5,1-0.8,1.7-0.8c0.5,0,0.8,0.1,1.1,0.2s0.6,0.4,0.8,0.6
			c0.2,0.2,0.3,0.5,0.4,0.8c0.1,0.3,0.1,0.5,0.1,0.8c0,0.1,0,0.2,0,0.3c0,0.1,0,0.2,0,0.3c0.5,0.2,1,0.3,1.4,0.3
			c0.2,0,0.6-0.1,1-0.2s0.8-0.4,1.3-0.8c0.6-0.6,1-1.5,1.3-2.7c0.2-1.2,0.3-2.6,0.3-4.1l0.1-26.1c0-0.6,0-1.1,0-1.7
			c0-0.5,0.1-1.2,0.2-1.9l-4,0.2v-2.4c1.2,0,2.2,0,3.1-0.1c0.8-0.1,1.5-0.2,2-0.3c0.5-0.1,0.9-0.3,1.2-0.5c0.3-0.2,0.5-0.4,0.8-0.6
			h1.6V389c0,2.6-0.3,4.9-0.8,6.7c-0.5,1.9-1.3,3.4-2.2,4.7c-1,1.2-2.1,2.1-3.4,2.7c-1.3,0.6-2.7,0.9-4.2,0.9c-0.8,0-1.4-0.1-2-0.3
			c-0.6-0.2-1-0.4-1.4-0.7c-0.4-0.3-0.6-0.6-0.8-1C2391,401.7,2390.9,401.3,2390.9,400.9z M2406.3,351.4c0,0.5-0.1,0.9-0.3,1.3
			s-0.4,0.8-0.7,1.1c-0.3,0.3-0.6,0.5-1,0.7s-0.7,0.2-1.1,0.2c-0.4,0-0.8-0.1-1.1-0.2s-0.7-0.4-1-0.7c-0.3-0.3-0.5-0.7-0.7-1.1
			s-0.2-0.8-0.2-1.3c0-0.5,0.1-0.9,0.2-1.3c0.2-0.4,0.4-0.8,0.7-1.1s0.6-0.6,1-0.7c0.4-0.2,0.8-0.3,1.2-0.3c0.4,0,0.8,0.1,1.2,0.3
			c0.4,0.2,0.7,0.4,0.9,0.7c0.3,0.3,0.5,0.7,0.6,1.1C2406.2,350.5,2406.3,350.9,2406.3,351.4z"/>
		<path class="st1" d="M2438.1,372.3l-19.7,0.3c0,2.2,0.1,4.1,0.5,5.9c0.3,1.8,0.9,3.3,1.6,4.5c0.7,1.2,1.7,2.2,2.9,2.9
			c1.2,0.7,2.6,1,4.2,1c0.9,0,1.8-0.1,2.7-0.4c0.9-0.2,1.8-0.6,2.6-1c0.8-0.4,1.6-0.9,2.3-1.5c0.7-0.6,1.3-1.2,1.8-1.9l1.4,1.1
			c-0.8,1.2-1.7,2.2-2.7,3c-1,0.8-2.1,1.5-3.1,2c-1.1,0.5-2.2,0.9-3.3,1.1c-1.1,0.2-2.1,0.3-3.1,0.3c-1.9,0-3.7-0.3-5.4-1
			c-1.7-0.7-3.1-1.7-4.3-3c-1.2-1.3-2.2-2.9-2.9-4.7s-1.1-3.9-1.1-6.2c0-2,0.3-3.9,1-5.6c0.7-1.8,1.6-3.4,2.9-4.8
			c1.2-1.4,2.7-2.5,4.5-3.3c1.7-0.8,3.7-1.2,5.8-1.2c1.6,0,3,0.3,4.4,0.8c1.4,0.5,2.6,1.3,3.6,2.3c1,1,1.9,2.3,2.5,3.9
			C2437.8,368.4,2438.1,370.2,2438.1,372.3z M2426.7,362.1c-2.2,0-4,0.6-5.4,1.9c-1.4,1.3-2.4,3.4-2.8,6.2h14.3c0-1-0.1-2-0.3-2.9
			c-0.2-1-0.6-1.8-1.1-2.6s-1.1-1.4-1.9-1.9C2428.8,362.4,2427.8,362.1,2426.7,362.1z"/>
		<path class="st1" d="M2441.4,360.8c1,0,1.9-0.3,2.7-0.8c0.8-0.5,1.5-1.2,2.1-1.9c0.6-0.8,1.1-1.6,1.5-2.5c0.4-0.9,0.7-1.8,1-2.6
			h1.9c0,1.5,0,2.9,0,4.2c0,1.3,0,2.5,0,3.7h9.4v2.2l-9.4,0.1c0,2.4,0,4.5,0,6.2s0,3.1,0,4.3s0,2.1,0,2.7c0,0.7,0,1.2,0,1.5
			s0,0.6,0,0.7s0,0.2,0,0.2c0,1.3,0.1,2.4,0.2,3.4c0.1,1,0.4,1.8,0.7,2.5c0.3,0.7,0.8,1.2,1.3,1.5c0.5,0.3,1.2,0.5,2,0.5
			c1,0,1.9-0.3,2.9-0.9c0.9-0.6,1.8-1.4,2.5-2.5l1.5,1.2c-0.8,1.2-1.6,2.2-2.4,2.9c-0.8,0.7-1.6,1.2-2.3,1.6s-1.4,0.6-2,0.7
			s-1.2,0.1-1.7,0.1c-0.6,0-1.1,0-1.7-0.1s-1.2-0.3-1.8-0.5c-0.6-0.3-1.1-0.6-1.6-1.1s-0.9-1.1-1.3-1.9c-0.4-0.8-0.7-1.7-0.9-2.8
			c-0.2-1.1-0.3-2.4-0.3-3.9l0.1-16.2l-4.3,0V360.8z"/>
	</g>
	<g>
		<g>
			<path class="st1" d="M2154.3,375.3c11.8,3.1,17.2,3.1,17.8,1.1c0,0,0.2-0.8,0.2-1.6c0-3.4-1-4.1-1-4.1c0,2-5,3.7-17,3.7
				L2154.3,375.3z"/>
			<path class="st1" d="M2154.2,373.7c12.1-1.6,17.1-3.7,16.8-5.7c0,0-0.2-0.8-0.4-1.5c-1.3-3.1-2.5-3.4-2.5-3.4
				c0.8,1.9-3.2,5.3-14.3,9.9L2154.2,373.7z"/>
			<path class="st1" d="M2153.4,372.3c10.5-6.1,14.4-10,13.4-11.8c0,0-0.5-0.7-1-1.2c-2.4-2.4-3.6-2.2-3.6-2.2
				c1.4,1.4-0.9,6.1-9.4,14.6L2153.4,372.3z"/>
			<path class="st1" d="M2152.2,371.2c7.4-9.7,9.5-14.7,7.9-16c0,0-0.7-0.5-1.4-0.8c-3.1-1.3-4.2-0.6-4.2-0.6
				c1.9,0.8,1.5,6-3.1,17.1L2152.2,371.2z"/>
			<path class="st1" d="M2150.7,370.8c3.1-11.8,3.1-17.2,1.1-17.8c0,0-0.8-0.2-1.6-0.2c-3.4,0-4.1,1-4.1,1c2,0,3.7,5,3.7,17
				L2150.7,370.8z"/>
			<path class="st1" d="M2149.1,370.9c-1.6-12.1-3.7-17.1-5.7-16.8c0,0-0.8,0.2-1.5,0.4c-3.1,1.3-3.4,2.5-3.4,2.5
				c1.9-0.8,5.3,3.2,9.9,14.3L2149.1,370.9z"/>
			<path class="st1" d="M2147.7,371.7c-6.1-10.5-10-14.4-11.8-13.4c0,0-0.7,0.5-1.2,1c-2.4,2.4-2.2,3.6-2.2,3.6
				c1.4-1.4,6.1,0.9,14.6,9.4L2147.7,371.7z"/>
			<path class="st1" d="M2146.7,372.9c-9.7-7.4-14.7-9.5-16-7.9c0,0-0.5,0.7-0.8,1.4c-1.3,3.1-0.6,4.2-0.6,4.2
				c0.8-1.9,6-1.5,17.1,3.1L2146.7,372.9z"/>
			<path class="st1" d="M2146.2,374.4c-11.8-3.1-17.2-3.1-17.8-1.1c0,0-0.2,0.8-0.2,1.6c0,3.4,1,4.1,1,4.1c0-2,5-3.7,17-3.7
				L2146.2,374.4z"/>
			<path class="st1" d="M2146.4,376c-12.1,1.6-17.1,3.7-16.8,5.7c0,0,0.2,0.8,0.4,1.5c1.3,3.1,2.5,3.4,2.5,3.4
				c-0.8-1.9,3.2-5.3,14.3-9.9L2146.4,376z"/>
			<path class="st1" d="M2147.1,377.4c-10.5,6.1-14.4,10-13.4,11.8c0,0,0.5,0.7,1,1.2c2.4,2.4,3.6,2.2,3.6,2.2
				c-1.4-1.4,0.9-6.1,9.4-14.6L2147.1,377.4z"/>
			<path class="st1" d="M2148.3,378.4c-7.4,9.7-9.5,14.7-7.9,16c0,0,0.7,0.5,1.4,0.8c3.1,1.3,4.2,0.6,4.2,0.6
				c-1.9-0.8-1.5-6,3.1-17.1L2148.3,378.4z"/>
			<path class="st1" d="M2149.8,378.9c-3.1,11.8-3.1,17.2-1.1,17.8c0,0,0.8,0.2,1.6,0.2c3.4,0,4.1-1,4.1-1c-2,0-3.7-5-3.7-17
				L2149.8,378.9z"/>
			<path class="st1" d="M2151.4,378.7c1.6,12.1,3.7,17.1,5.7,16.8c0,0,0.8-0.2,1.5-0.4c3.1-1.3,3.4-2.5,3.4-2.5
				c-1.9,0.8-5.3-3.2-9.9-14.3L2151.4,378.7z"/>
			<path class="st1" d="M2152.8,378c6.1,10.5,10,14.4,11.8,13.4c0,0,0.7-0.5,1.2-1c2.4-2.4,2.2-3.6,2.2-3.6
				c-1.4,1.4-6.1-0.9-14.6-9.4L2152.8,378z"/>
			<path class="st1" d="M2153.9,376.8c9.7,7.4,14.7,9.5,16,7.9c0,0,0.5-0.7,0.8-1.4c1.3-3.1,0.6-4.2,0.6-4.2
				c-0.8,1.9-6,1.5-17.1-3.1L2153.9,376.8z"/>
		</g>
		<circle class="st1" cx="2150.2" cy="375" r="8.5"/>
		<path class="st2" d="M2150.2,384.8c-5.4,0-9.8-4.4-9.8-9.8s4.4-9.8,9.8-9.8c5.4,0,9.8,4.4,9.8,9.8S2155.6,384.8,2150.2,384.8z
			 M2150.2,368.8c-3.4,0-6.2,2.8-6.2,6.2s2.8,6.2,6.2,6.2c3.4,0,6.2-2.8,6.2-6.2S2153.7,368.8,2150.2,368.8z"/>
		<path class="st1" d="M2182.2,375c0,17.7-14.3,32-32,32s-32-14.3-32-32c0-17.7,14.3-32,32-32S2182.2,357.3,2182.2,375z
			 M2150.2,350.5c-13.5,0-24.5,11-24.5,24.5s11,24.5,24.5,24.5s24.5-11,24.5-24.5S2163.8,350.5,2150.2,350.5z"/>
	</g>
</g>
<g>
	<g>
		<path class="st1" d="M2154.3,496.3c11.8,3.1,17.2,3.1,17.8,1.1c0,0,0.2-0.8,0.2-1.6c0-3.4-1-4.1-1-4.1c0,2-5,3.7-17,3.7
			L2154.3,496.3z"/>
		<path class="st1" d="M2154.2,494.7c12.1-1.6,17.1-3.7,16.8-5.7c0,0-0.2-0.8-0.4-1.5c-1.3-3.1-2.5-3.4-2.5-3.4
			c0.8,1.9-3.2,5.3-14.3,9.9L2154.2,494.7z"/>
		<path class="st1" d="M2153.4,493.3c10.5-6.1,14.4-10,13.4-11.8c0,0-0.5-0.7-1-1.2c-2.4-2.4-3.6-2.2-3.6-2.2
			c1.4,1.4-0.9,6.1-9.4,14.6L2153.4,493.3z"/>
		<path class="st1" d="M2152.2,492.2c7.4-9.7,9.5-14.7,7.9-16c0,0-0.7-0.5-1.4-0.8c-3.1-1.3-4.2-0.6-4.2-0.6c1.9,0.8,1.5,6-3.1,17.1
			L2152.2,492.2z"/>
		<path class="st1" d="M2150.7,491.8c3.1-11.8,3.1-17.2,1.1-17.8c0,0-0.8-0.2-1.6-0.2c-3.4,0-4.1,1-4.1,1c2,0,3.7,5,3.7,17
			L2150.7,491.8z"/>
		<path class="st1" d="M2149.1,491.9c-1.6-12.1-3.7-17.1-5.7-16.8c0,0-0.8,0.2-1.5,0.4c-3.1,1.3-3.4,2.5-3.4,2.5
			c1.9-0.8,5.3,3.2,9.9,14.3L2149.1,491.9z"/>
		<path class="st1" d="M2147.7,492.7c-6.1-10.5-10-14.4-11.8-13.4c0,0-0.7,0.5-1.2,1c-2.4,2.4-2.2,3.6-2.2,3.6
			c1.4-1.4,6.1,0.9,14.6,9.4L2147.7,492.7z"/>
		<path class="st1" d="M2146.7,493.9c-9.7-7.4-14.7-9.5-16-7.9c0,0-0.5,0.7-0.8,1.4c-1.3,3.1-0.6,4.2-0.6,4.2
			c0.8-1.9,6-1.5,17.1,3.1L2146.7,493.9z"/>
		<path class="st1" d="M2146.2,495.4c-11.8-3.1-17.2-3.1-17.8-1.1c0,0-0.2,0.8-0.2,1.6c0,3.4,1,4.1,1,4.1c0-2,5-3.7,17-3.7
			L2146.2,495.4z"/>
		<path class="st1" d="M2146.4,497c-12.1,1.6-17.1,3.7-16.8,5.7c0,0,0.2,0.8,0.4,1.5c1.3,3.1,2.5,3.4,2.5,3.4
			c-0.8-1.9,3.2-5.3,14.3-9.9L2146.4,497z"/>
		<path class="st1" d="M2147.1,498.4c-10.5,6.1-14.4,10-13.4,11.8c0,0,0.5,0.7,1,1.2c2.4,2.4,3.6,2.2,3.6,2.2
			c-1.4-1.4,0.9-6.1,9.4-14.6L2147.1,498.4z"/>
		<path class="st1" d="M2148.3,499.4c-7.4,9.7-9.5,14.7-7.9,16c0,0,0.7,0.5,1.4,0.8c3.1,1.3,4.2,0.6,4.2,0.6
			c-1.9-0.8-1.5-6,3.1-17.1L2148.3,499.4z"/>
		<path class="st1" d="M2149.8,499.9c-3.1,11.8-3.1,17.2-1.1,17.8c0,0,0.8,0.2,1.6,0.2c3.4,0,4.1-1,4.1-1c-2,0-3.7-5-3.7-17
			L2149.8,499.9z"/>
		<path class="st1" d="M2151.4,499.7c1.6,12.1,3.7,17.1,5.7,16.8c0,0,0.8-0.2,1.5-0.4c3.1-1.3,3.4-2.5,3.4-2.5
			c-1.9,0.8-5.3-3.2-9.9-14.3L2151.4,499.7z"/>
		<path class="st1" d="M2152.8,499c6.1,10.5,10,14.4,11.8,13.4c0,0,0.7-0.5,1.2-1c2.4-2.4,2.2-3.6,2.2-3.6
			c-1.4,1.4-6.1-0.9-14.6-9.4L2152.8,499z"/>
		<path class="st1" d="M2153.9,497.8c9.7,7.4,14.7,9.5,16,7.9c0,0,0.5-0.7,0.8-1.4c1.3-3.1,0.6-4.2,0.6-4.2c-0.8,1.9-6,1.5-17.1-3.1
			L2153.9,497.8z"/>
	</g>
	<circle class="st1" cx="2150.2" cy="496" r="8.5"/>
	<path class="st2" d="M2150.2,505.8c-5.4,0-9.8-4.4-9.8-9.8s4.4-9.8,9.8-9.8c5.4,0,9.8,4.4,9.8,9.8S2155.6,505.8,2150.2,505.8z
		 M2150.2,489.8c-3.4,0-6.2,2.8-6.2,6.2s2.8,6.2,6.2,6.2c3.4,0,6.2-2.8,6.2-6.2S2153.7,489.8,2150.2,489.8z"/>
	<path class="st1" d="M2182.2,496c0,17.7-14.3,32-32,32s-32-14.3-32-32c0-17.7,14.3-32,32-32S2182.2,478.3,2182.2,496z
		 M2150.2,471.5c-13.5,0-24.5,11-24.5,24.5s11,24.5,24.5,24.5s24.5-11,24.5-24.5S2163.8,471.5,2150.2,471.5z"/>
</g>
<text transform="matrix(1.1 0 0 1 2191.2422 509.8149)"><tspan x="0" y="0" class="st0" style="font-family:'PlayfairDisplay-Regular'; font-size:54px;">content</tspan><tspan x="185.9" y="0" class="st1" style="font-family:'PlayfairDisplay-Regular'; font-size:54px;">jet</tspan></text>
<g>
	<g>
		<path class="st1" d="M2542.3,381.3c11.8,3.1,17.2,3.1,17.8,1.1c0,0,0.2-0.8,0.2-1.6c0-3.4-1-4.1-1-4.1c0,2-5,3.7-17,3.7
			L2542.3,381.3z"/>
		<path class="st1" d="M2542.2,379.7c12.1-1.6,17.1-3.7,16.8-5.7c0,0-0.2-0.8-0.4-1.5c-1.3-3.1-2.5-3.4-2.5-3.4
			c0.8,1.9-3.2,5.3-14.3,9.9L2542.2,379.7z"/>
		<path class="st1" d="M2541.4,378.3c10.5-6.1,14.4-10,13.4-11.8c0,0-0.5-0.7-1-1.2c-2.4-2.4-3.6-2.2-3.6-2.2
			c1.4,1.4-0.9,6.1-9.4,14.6L2541.4,378.3z"/>
		<path class="st1" d="M2540.2,377.2c7.4-9.7,9.5-14.7,7.9-16c0,0-0.7-0.5-1.4-0.8c-3.1-1.3-4.2-0.6-4.2-0.6c1.9,0.8,1.5,6-3.1,17.1
			L2540.2,377.2z"/>
		<path class="st1" d="M2538.7,376.8c3.1-11.8,3.1-17.2,1.1-17.8c0,0-0.8-0.2-1.6-0.2c-3.4,0-4.1,1-4.1,1c2,0,3.7,5,3.7,17
			L2538.7,376.8z"/>
		<path class="st1" d="M2537.1,376.9c-1.6-12.1-3.7-17.1-5.7-16.8c0,0-0.8,0.2-1.5,0.4c-3.1,1.3-3.4,2.5-3.4,2.5
			c1.9-0.8,5.3,3.2,9.9,14.3L2537.1,376.9z"/>
		<path class="st1" d="M2535.7,377.7c-6.1-10.5-10-14.4-11.8-13.4c0,0-0.7,0.5-1.2,1c-2.4,2.4-2.2,3.6-2.2,3.6
			c1.4-1.4,6.1,0.9,14.6,9.4L2535.7,377.7z"/>
		<path class="st1" d="M2534.7,378.9c-9.7-7.4-14.7-9.5-16-7.9c0,0-0.5,0.7-0.8,1.4c-1.3,3.1-0.6,4.2-0.6,4.2
			c0.8-1.9,6-1.5,17.1,3.1L2534.7,378.9z"/>
		<path class="st1" d="M2534.2,380.4c-11.8-3.1-17.2-3.1-17.8-1.1c0,0-0.2,0.8-0.2,1.6c0,3.4,1,4.1,1,4.1c0-2,5-3.7,17-3.7
			L2534.2,380.4z"/>
		<path class="st1" d="M2534.4,382c-12.1,1.6-17.1,3.7-16.8,5.7c0,0,0.2,0.8,0.4,1.5c1.3,3.1,2.5,3.4,2.5,3.4
			c-0.8-1.9,3.2-5.3,14.3-9.9L2534.4,382z"/>
		<path class="st1" d="M2535.1,383.4c-10.5,6.1-14.4,10-13.4,11.8c0,0,0.5,0.7,1,1.2c2.4,2.4,3.6,2.2,3.6,2.2
			c-1.4-1.4,0.9-6.1,9.4-14.6L2535.1,383.4z"/>
		<path class="st1" d="M2536.3,384.4c-7.4,9.7-9.5,14.7-7.9,16c0,0,0.7,0.5,1.4,0.8c3.1,1.3,4.2,0.6,4.2,0.6
			c-1.9-0.8-1.5-6,3.1-17.1L2536.3,384.4z"/>
		<path class="st1" d="M2537.8,384.9c-3.1,11.8-3.1,17.2-1.1,17.8c0,0,0.8,0.2,1.6,0.2c3.4,0,4.1-1,4.1-1c-2,0-3.7-5-3.7-17
			L2537.8,384.9z"/>
		<path class="st1" d="M2539.4,384.7c1.6,12.1,3.7,17.1,5.7,16.8c0,0,0.8-0.2,1.5-0.4c3.1-1.3,3.4-2.5,3.4-2.5
			c-1.9,0.8-5.3-3.2-9.9-14.3L2539.4,384.7z"/>
		<path class="st1" d="M2540.8,384c6.1,10.5,10,14.4,11.8,13.4c0,0,0.7-0.5,1.2-1c2.4-2.4,2.2-3.6,2.2-3.6
			c-1.4,1.4-6.1-0.9-14.6-9.4L2540.8,384z"/>
		<path class="st1" d="M2541.9,382.8c9.7,7.4,14.7,9.5,16,7.9c0,0,0.5-0.7,0.8-1.4c1.3-3.1,0.6-4.2,0.6-4.2c-0.8,1.9-6,1.5-17.1-3.1
			L2541.9,382.8z"/>
	</g>
	<circle class="st1" cx="2538.2" cy="381" r="8.5"/>
	<path class="st2" d="M2538.2,390.8c-5.4,0-9.8-4.4-9.8-9.8s4.4-9.8,9.8-9.8c5.4,0,9.8,4.4,9.8,9.8S2543.6,390.8,2538.2,390.8z
		 M2538.2,374.8c-3.4,0-6.2,2.8-6.2,6.2s2.8,6.2,6.2,6.2c3.4,0,6.2-2.8,6.2-6.2S2541.7,374.8,2538.2,374.8z"/>
	<path class="st1" d="M2570.2,381c0,17.7-14.3,32-32,32s-32-14.3-32-32c0-17.7,14.3-32,32-32S2570.2,363.3,2570.2,381z
		 M2538.2,356.5c-13.5,0-24.5,11-24.5,24.5s11,24.5,24.5,24.5s24.5-11,24.5-24.5S2551.8,356.5,2538.2,356.5z"/>
</g>
<text transform="matrix(1.1 0 0 1 2578.2419 396.8149)"><tspan x="0" y="0" class="st0" style="font-family:'PlayfairDisplay-Regular'; font-size:58px; letter-spacing:-0.9;">content</tspan><tspan x="191.5" y="0" class="st1" style="font-family:'PlayfairDisplay-Regular'; font-size:58px; letter-spacing:-0.9;">jet</tspan></text>
<g>
	<g>
		<path class="st1" d="M2542.3,508.3c11.8,3.1,17.2,3.1,17.8,1.1c0,0,0.2-0.8,0.2-1.6c0-3.4-1-4.1-1-4.1c0,2-5,3.7-17,3.7
			L2542.3,508.3z"/>
		<path class="st1" d="M2542.2,506.7c12.1-1.6,17.1-3.7,16.8-5.7c0,0-0.2-0.8-0.4-1.5c-1.3-3.1-2.5-3.4-2.5-3.4
			c0.8,1.9-3.2,5.3-14.3,9.9L2542.2,506.7z"/>
		<path class="st1" d="M2541.4,505.3c10.5-6.1,14.4-10,13.4-11.8c0,0-0.5-0.7-1-1.2c-2.4-2.4-3.6-2.2-3.6-2.2
			c1.4,1.4-0.9,6.1-9.4,14.6L2541.4,505.3z"/>
		<path class="st1" d="M2540.2,504.2c7.4-9.7,9.5-14.7,7.9-16c0,0-0.7-0.5-1.4-0.8c-3.1-1.3-4.2-0.6-4.2-0.6c1.9,0.8,1.5,6-3.1,17.1
			L2540.2,504.2z"/>
		<path class="st1" d="M2538.7,503.8c3.1-11.8,3.1-17.2,1.1-17.8c0,0-0.8-0.2-1.6-0.2c-3.4,0-4.1,1-4.1,1c2,0,3.7,5,3.7,17
			L2538.7,503.8z"/>
		<path class="st1" d="M2537.1,503.9c-1.6-12.1-3.7-17.1-5.7-16.8c0,0-0.8,0.2-1.5,0.4c-3.1,1.3-3.4,2.5-3.4,2.5
			c1.9-0.8,5.3,3.2,9.9,14.3L2537.1,503.9z"/>
		<path class="st1" d="M2535.7,504.7c-6.1-10.5-10-14.4-11.8-13.4c0,0-0.7,0.5-1.2,1c-2.4,2.4-2.2,3.6-2.2,3.6
			c1.4-1.4,6.1,0.9,14.6,9.4L2535.7,504.7z"/>
		<path class="st1" d="M2534.7,505.9c-9.7-7.4-14.7-9.5-16-7.9c0,0-0.5,0.7-0.8,1.4c-1.3,3.1-0.6,4.2-0.6,4.2
			c0.8-1.9,6-1.5,17.1,3.1L2534.7,505.9z"/>
		<path class="st1" d="M2534.2,507.4c-11.8-3.1-17.2-3.1-17.8-1.1c0,0-0.2,0.8-0.2,1.6c0,3.4,1,4.1,1,4.1c0-2,5-3.7,17-3.7
			L2534.2,507.4z"/>
		<path class="st1" d="M2534.4,509c-12.1,1.6-17.1,3.7-16.8,5.7c0,0,0.2,0.8,0.4,1.5c1.3,3.1,2.5,3.4,2.5,3.4
			c-0.8-1.9,3.2-5.3,14.3-9.9L2534.4,509z"/>
		<path class="st1" d="M2535.1,510.4c-10.5,6.1-14.4,10-13.4,11.8c0,0,0.5,0.7,1,1.2c2.4,2.4,3.6,2.2,3.6,2.2
			c-1.4-1.4,0.9-6.1,9.4-14.6L2535.1,510.4z"/>
		<path class="st1" d="M2536.3,511.4c-7.4,9.7-9.5,14.7-7.9,16c0,0,0.7,0.5,1.4,0.8c3.1,1.3,4.2,0.6,4.2,0.6
			c-1.9-0.8-1.5-6,3.1-17.1L2536.3,511.4z"/>
		<path class="st1" d="M2537.8,511.9c-3.1,11.8-3.1,17.2-1.1,17.8c0,0,0.8,0.2,1.6,0.2c3.4,0,4.1-1,4.1-1c-2,0-3.7-5-3.7-17
			L2537.8,511.9z"/>
		<path class="st1" d="M2539.4,511.7c1.6,12.1,3.7,17.1,5.7,16.8c0,0,0.8-0.2,1.5-0.4c3.1-1.3,3.4-2.5,3.4-2.5
			c-1.9,0.8-5.3-3.2-9.9-14.3L2539.4,511.7z"/>
		<path class="st1" d="M2540.8,511c6.1,10.5,10,14.4,11.8,13.4c0,0,0.7-0.5,1.2-1c2.4-2.4,2.2-3.6,2.2-3.6
			c-1.4,1.4-6.1-0.9-14.6-9.4L2540.8,511z"/>
		<path class="st1" d="M2541.9,509.8c9.7,7.4,14.7,9.5,16,7.9c0,0,0.5-0.7,0.8-1.4c1.3-3.1,0.6-4.2,0.6-4.2c-0.8,1.9-6,1.5-17.1-3.1
			L2541.9,509.8z"/>
	</g>
	<circle class="st1" cx="2538.2" cy="508" r="8.5"/>
	<path class="st2" d="M2538.2,517.8c-5.4,0-9.8-4.4-9.8-9.8s4.4-9.8,9.8-9.8c5.4,0,9.8,4.4,9.8,9.8S2543.6,517.8,2538.2,517.8z
		 M2538.2,501.8c-3.4,0-6.2,2.8-6.2,6.2s2.8,6.2,6.2,6.2c3.4,0,6.2-2.8,6.2-6.2S2541.7,501.8,2538.2,501.8z"/>
	<path class="st1" d="M2570.2,508c0,17.7-14.3,32-32,32s-32-14.3-32-32c0-17.7,14.3-32,32-32S2570.2,490.3,2570.2,508z
		 M2538.2,483.5c-13.5,0-24.5,11-24.5,24.5c0,13.5,11,24.5,24.5,24.5s24.5-11,24.5-24.5C2562.7,494.5,2551.8,483.5,2538.2,483.5z"/>
</g>
<text transform="matrix(1.1 0 0 1 2578.2419 523.8149)"><tspan x="0" y="0" class="st0" style="font-family:'PlayfairDisplay-Regular'; font-size:58px; letter-spacing:-0.9;">content</tspan><tspan x="191.5" y="0" class="st1" style="font-family:'PlayfairDisplay-Regular'; font-size:58px; letter-spacing:-0.9;">jet</tspan></text>
<g>
	<g>
		<path class="st1" d="M2154.3,620.3c11.8,3.1,17.2,3.1,17.8,1.1c0,0,0.2-0.8,0.2-1.6c0-3.4-1-4.1-1-4.1c0,2-5,3.7-17,3.7
			L2154.3,620.3z"/>
		<path class="st1" d="M2154.2,618.7c12.1-1.6,17.1-3.7,16.8-5.7c0,0-0.2-0.8-0.4-1.5c-1.3-3.1-2.5-3.4-2.5-3.4
			c0.8,1.9-3.2,5.3-14.3,9.9L2154.2,618.7z"/>
		<path class="st1" d="M2153.4,617.3c10.5-6.1,14.4-10,13.4-11.8c0,0-0.5-0.7-1-1.2c-2.4-2.4-3.6-2.2-3.6-2.2
			c1.4,1.4-0.9,6.1-9.4,14.6L2153.4,617.3z"/>
		<path class="st1" d="M2152.2,616.2c7.4-9.7,9.5-14.7,7.9-16c0,0-0.7-0.5-1.4-0.8c-3.1-1.3-4.2-0.6-4.2-0.6c1.9,0.8,1.5,6-3.1,17.1
			L2152.2,616.2z"/>
		<path class="st1" d="M2150.7,615.8c3.1-11.8,3.1-17.2,1.1-17.8c0,0-0.8-0.2-1.6-0.2c-3.4,0-4.1,1-4.1,1c2,0,3.7,5,3.7,17
			L2150.7,615.8z"/>
		<path class="st1" d="M2149.1,615.9c-1.6-12.1-3.7-17.1-5.7-16.8c0,0-0.8,0.2-1.5,0.4c-3.1,1.3-3.4,2.5-3.4,2.5
			c1.9-0.8,5.3,3.2,9.9,14.3L2149.1,615.9z"/>
		<path class="st1" d="M2147.7,616.7c-6.1-10.5-10-14.4-11.8-13.4c0,0-0.7,0.5-1.2,1c-2.4,2.4-2.2,3.6-2.2,3.6
			c1.4-1.4,6.1,0.9,14.6,9.4L2147.7,616.7z"/>
		<path class="st1" d="M2146.7,617.9c-9.7-7.4-14.7-9.5-16-7.9c0,0-0.5,0.7-0.8,1.4c-1.3,3.1-0.6,4.2-0.6,4.2
			c0.8-1.9,6-1.5,17.1,3.1L2146.7,617.9z"/>
		<path class="st1" d="M2146.2,619.4c-11.8-3.1-17.2-3.1-17.8-1.1c0,0-0.2,0.8-0.2,1.6c0,3.4,1,4.1,1,4.1c0-2,5-3.7,17-3.7
			L2146.2,619.4z"/>
		<path class="st1" d="M2146.4,621c-12.1,1.6-17.1,3.7-16.8,5.7c0,0,0.2,0.8,0.4,1.5c1.3,3.1,2.5,3.4,2.5,3.4
			c-0.8-1.9,3.2-5.3,14.3-9.9L2146.4,621z"/>
		<path class="st1" d="M2147.1,622.4c-10.5,6.1-14.4,10-13.4,11.8c0,0,0.5,0.7,1,1.2c2.4,2.4,3.6,2.2,3.6,2.2
			c-1.4-1.4,0.9-6.1,9.4-14.6L2147.1,622.4z"/>
		<path class="st1" d="M2148.3,623.4c-7.4,9.7-9.5,14.7-7.9,16c0,0,0.7,0.5,1.4,0.8c3.1,1.3,4.2,0.6,4.2,0.6
			c-1.9-0.8-1.5-6,3.1-17.1L2148.3,623.4z"/>
		<path class="st1" d="M2149.8,623.9c-3.1,11.8-3.1,17.2-1.1,17.8c0,0,0.8,0.2,1.6,0.2c3.4,0,4.1-1,4.1-1c-2,0-3.7-5-3.7-17
			L2149.8,623.9z"/>
		<path class="st1" d="M2151.4,623.7c1.6,12.1,3.7,17.1,5.7,16.8c0,0,0.8-0.2,1.5-0.4c3.1-1.3,3.4-2.5,3.4-2.5
			c-1.9,0.8-5.3-3.2-9.9-14.3L2151.4,623.7z"/>
		<path class="st1" d="M2152.8,623c6.1,10.5,10,14.4,11.8,13.4c0,0,0.7-0.5,1.2-1c2.4-2.4,2.2-3.6,2.2-3.6
			c-1.4,1.4-6.1-0.9-14.6-9.4L2152.8,623z"/>
		<path class="st1" d="M2153.9,621.8c9.7,7.4,14.7,9.5,16,7.9c0,0,0.5-0.7,0.8-1.4c1.3-3.1,0.6-4.2,0.6-4.2c-0.8,1.9-6,1.5-17.1-3.1
			L2153.9,621.8z"/>
	</g>
	<circle class="st1" cx="2150.2" cy="620" r="8.5"/>
	<path class="st2" d="M2150.2,629.8c-5.4,0-9.8-4.4-9.8-9.8s4.4-9.8,9.8-9.8c5.4,0,9.8,4.4,9.8,9.8S2155.6,629.8,2150.2,629.8z
		 M2150.2,613.8c-3.4,0-6.2,2.8-6.2,6.2s2.8,6.2,6.2,6.2c3.4,0,6.2-2.8,6.2-6.2S2153.7,613.8,2150.2,613.8z"/>
	<path class="st1" d="M2182.2,620c0,17.7-14.3,32-32,32s-32-14.3-32-32s14.3-32,32-32S2182.2,602.3,2182.2,620z M2150.2,595.5
		c-13.5,0-24.5,11-24.5,24.5c0,13.5,11,24.5,24.5,24.5s24.5-11,24.5-24.5C2174.7,606.5,2163.8,595.5,2150.2,595.5z"/>
</g>
<g>
	<text transform="matrix(1 0 0 1 2193.9087 634.7582)"><tspan x="0" y="0" class="st0" style="font-family:'Raleway-Medium'; font-size:56px;">content</tspan><tspan x="203.2" y="0" class="st1" style="font-family:'Raleway-Medium'; font-size:56px;">jet</tspan></text>
</g>
<g>
	<g>
		<path class="st1" d="M2154.3,729.3c11.8,3.1,17.2,3.1,17.8,1.1c0,0,0.2-0.8,0.2-1.6c0-3.4-1-4.1-1-4.1c0,2-5,3.7-17,3.7
			L2154.3,729.3z"/>
		<path class="st1" d="M2154.2,727.7c12.1-1.6,17.1-3.7,16.8-5.7c0,0-0.2-0.8-0.4-1.5c-1.3-3.1-2.5-3.4-2.5-3.4
			c0.8,1.9-3.2,5.3-14.3,9.9L2154.2,727.7z"/>
		<path class="st1" d="M2153.4,726.3c10.5-6.1,14.4-10,13.4-11.8c0,0-0.5-0.7-1-1.2c-2.4-2.4-3.6-2.2-3.6-2.2
			c1.4,1.4-0.9,6.1-9.4,14.6L2153.4,726.3z"/>
		<path class="st1" d="M2152.2,725.2c7.4-9.7,9.5-14.7,7.9-16c0,0-0.7-0.5-1.4-0.8c-3.1-1.3-4.2-0.6-4.2-0.6c1.9,0.8,1.5,6-3.1,17.1
			L2152.2,725.2z"/>
		<path class="st1" d="M2150.7,724.8c3.1-11.8,3.1-17.2,1.1-17.8c0,0-0.8-0.2-1.6-0.2c-3.4,0-4.1,1-4.1,1c2,0,3.7,5,3.7,17
			L2150.7,724.8z"/>
		<path class="st1" d="M2149.1,724.9c-1.6-12.1-3.7-17.1-5.7-16.8c0,0-0.8,0.2-1.5,0.4c-3.1,1.3-3.4,2.5-3.4,2.5
			c1.9-0.8,5.3,3.2,9.9,14.3L2149.1,724.9z"/>
		<path class="st1" d="M2147.7,725.7c-6.1-10.5-10-14.4-11.8-13.4c0,0-0.7,0.5-1.2,1c-2.4,2.4-2.2,3.6-2.2,3.6
			c1.4-1.4,6.1,0.9,14.6,9.4L2147.7,725.7z"/>
		<path class="st1" d="M2146.7,726.9c-9.7-7.4-14.7-9.5-16-7.9c0,0-0.5,0.7-0.8,1.4c-1.3,3.1-0.6,4.2-0.6,4.2
			c0.8-1.9,6-1.5,17.1,3.1L2146.7,726.9z"/>
		<path class="st1" d="M2146.2,728.4c-11.8-3.1-17.2-3.1-17.8-1.1c0,0-0.2,0.8-0.2,1.6c0,3.4,1,4.1,1,4.1c0-2,5-3.7,17-3.7
			L2146.2,728.4z"/>
		<path class="st1" d="M2146.4,730c-12.1,1.6-17.1,3.7-16.8,5.7c0,0,0.2,0.8,0.4,1.5c1.3,3.1,2.5,3.4,2.5,3.4
			c-0.8-1.9,3.2-5.3,14.3-9.9L2146.4,730z"/>
		<path class="st1" d="M2147.1,731.4c-10.5,6.1-14.4,10-13.4,11.8c0,0,0.5,0.7,1,1.2c2.4,2.4,3.6,2.2,3.6,2.2
			c-1.4-1.4,0.9-6.1,9.4-14.6L2147.1,731.4z"/>
		<path class="st1" d="M2148.3,732.4c-7.4,9.7-9.5,14.7-7.9,16c0,0,0.7,0.5,1.4,0.8c3.1,1.3,4.2,0.6,4.2,0.6
			c-1.9-0.8-1.5-6,3.1-17.1L2148.3,732.4z"/>
		<path class="st1" d="M2149.8,732.9c-3.1,11.8-3.1,17.2-1.1,17.8c0,0,0.8,0.2,1.6,0.2c3.4,0,4.1-1,4.1-1c-2,0-3.7-5-3.7-17
			L2149.8,732.9z"/>
		<path class="st1" d="M2151.4,732.7c1.6,12.1,3.7,17.1,5.7,16.8c0,0,0.8-0.2,1.5-0.4c3.1-1.3,3.4-2.5,3.4-2.5
			c-1.9,0.8-5.3-3.2-9.9-14.3L2151.4,732.7z"/>
		<path class="st1" d="M2152.8,732c6.1,10.5,10,14.4,11.8,13.4c0,0,0.7-0.5,1.2-1c2.4-2.4,2.2-3.6,2.2-3.6
			c-1.4,1.4-6.1-0.9-14.6-9.4L2152.8,732z"/>
		<path class="st1" d="M2153.9,730.8c9.7,7.4,14.7,9.5,16,7.9c0,0,0.5-0.7,0.8-1.4c1.3-3.1,0.6-4.2,0.6-4.2c-0.8,1.9-6,1.5-17.1-3.1
			L2153.9,730.8z"/>
	</g>
	<circle class="st1" cx="2150.2" cy="729" r="8.5"/>
	<path class="st2" d="M2150.2,738.8c-5.4,0-9.8-4.4-9.8-9.8s4.4-9.8,9.8-9.8c5.4,0,9.8,4.4,9.8,9.8S2155.6,738.8,2150.2,738.8z
		 M2150.2,722.8c-3.4,0-6.2,2.8-6.2,6.2s2.8,6.2,6.2,6.2c3.4,0,6.2-2.8,6.2-6.2S2153.7,722.8,2150.2,722.8z"/>
	<path class="st1" d="M2182.2,729c0,17.7-14.3,32-32,32s-32-14.3-32-32s14.3-32,32-32S2182.2,711.3,2182.2,729z M2150.2,704.5
		c-13.5,0-24.5,11-24.5,24.5c0,13.5,11,24.5,24.5,24.5s24.5-11,24.5-24.5C2174.7,715.5,2163.8,704.5,2150.2,704.5z"/>
</g>
<g>
	<text transform="matrix(1 0 0 1 2193.9087 743.7582)"><tspan x="0" y="0" class="st0" style="font-family:'Raleway-Regular'; font-size:56px;">content</tspan><tspan x="199.7" y="0" class="st1" style="font-family:'Raleway-SemiBoldItalic'; font-size:56px;">jet</tspan></text>
</g>
<g id="Turbine">
</g>
<g id="ContentJet">
</g>
<use xlink:href="#Turbine_1_"  width="64" height="64" x="-32" y="-32" transform="matrix(1 0 0 -1 171.2225 368.998)" style="overflow:visible;"/>
<use xlink:href="#ContentJet_1_"  width="280" height="58" id="XMLID_1_" x="-140" y="-29" transform="matrix(1 0 0 -1 354.1458 369.6362)" style="overflow:visible;"/>
<g>
	
		<use xlink:href="#Turbine_1_"  width="64" height="64" x="-32" y="-32" transform="matrix(1 0 0 -1 31.9998 32.0002)" style="overflow:visible;"/>
	
		<use xlink:href="#ContentJet_1_"  width="280" height="58" id="XMLID_2_" x="-140" y="-29" transform="matrix(1 0 0 -1 214.9231 32.6384)" style="overflow:visible;"/>
</g>
<g>
	<path class="st1" d="M2583.2,858h-10l2-21c0,0,1.1-2,3-2s3,2,3,2L2583.2,858z"/>
	<path class="st1" d="M2550.2,881v10l-21-2c0,0-2-1.1-2-3c0-1.9,2-3,2-3L2550.2,881z"/>
	<path class="st1" d="M2606.2,891v-10l21,2c0,0,2,1.1,2,3c0,1.9-2,3-2,3L2606.2,891z"/>
	<circle class="st2" cx="2578.2" cy="886" r="34.5"/>
	<g>
		<path class="st1" d="M2578.2,879.8c-3.4,0-6.2,2.8-6.2,6.2s2.8,6.2,6.2,6.2c3.4,0,6.2-2.8,6.2-6.2S2581.7,879.8,2578.2,879.8z"/>
		<path class="st1" d="M2610.2,886c0,17.7-14.3,32-32,32s-32-14.3-32-32s14.3-32,32-32S2610.2,868.3,2610.2,886z M2578.2,861.5
			c-13.5,0-24.5,11-24.5,24.5c0,13.5,11,24.5,24.5,24.5s24.5-11,24.5-24.5C2602.7,872.5,2591.8,861.5,2578.2,861.5z"/>
		<path class="st1" d="M2571,879.4c0.5-0.6,1.1-1.1,1.8-1.5c-4.5-6.9-7.4-9.4-8.8-8.6c0,0-0.7,0.5-1.2,1c-2.4,2.4-2.2,3.6-2.2,3.6
			C2561.7,872.7,2565.1,874.1,2571,879.4z M2574.1,877.2c0.7-0.3,1.4-0.6,2.2-0.7c-1.5-8.1-3.2-11.6-4.9-11.4c0,0-0.8,0.2-1.5,0.4
			c-3.1,1.3-3.4,2.5-3.4,2.5C2568,867.4,2570.6,870,2574.1,877.2z M2599.3,881.7c0,1.7-3.4,3.1-11.3,3.5c0,0.3,0,0.5,0,0.8
			c0,0.5-0.1,1.1-0.1,1.6c8,1.7,11.8,1.4,12.2-0.2c0,0,0.2-0.8,0.2-1.6C2600.3,882.4,2599.3,881.7,2599.3,881.7z M2577.7,876.3
			c0.2,0,0.4,0,0.5,0c0.6,0,1.2,0.1,1.8,0.2c1.8-8.1,1.5-12-0.2-12.4c0,0-0.8-0.2-1.6-0.2c-3.4,0-4.1,1-4.1,1
			C2575.8,864.8,2577.3,868.3,2577.7,876.3z M2586.9,881.6c0.4,0.7,0.6,1.4,0.8,2.2c8.1-1.5,11.5-3.2,11.3-4.9c0,0-0.2-0.8-0.4-1.5
			c-1.3-3.1-2.5-3.4-2.5-3.4C2596.7,875.5,2594.1,878.2,2586.9,881.6z M2583.5,877.8c4.7-6.8,5.9-10.5,4.6-11.5c0,0-0.7-0.5-1.4-0.8
			c-3.1-1.3-4.2-0.6-4.2-0.6c1.5,0.6,1.5,4.4-1.1,11.9C2582.1,877,2582.8,877.4,2583.5,877.8z M2568.5,886.4c0-0.1,0-0.3,0-0.4
			c0-0.7,0.1-1.3,0.2-1.9c-7.9-1.7-11.8-1.4-12.2,0.2c0,0-0.2,0.8-0.2,1.6c0,3.4,1,4.1,1,4.1
			C2557.3,888.3,2560.7,886.9,2568.5,886.4z M2584.6,878.6c0.6,0.5,1.1,1.1,1.6,1.7c6.9-4.5,9.5-7.4,8.6-8.9c0,0-0.5-0.7-1-1.2
			c-2.4-2.4-3.6-2.2-3.6-2.2C2591.4,869.3,2590,872.7,2584.6,878.6z M2569.1,882.7c0.3-0.7,0.6-1.5,1.1-2.1
			c-6.7-4.7-10.4-5.8-11.4-4.5c0,0-0.5,0.7-0.8,1.4c-1.3,3.1-0.6,4.2-0.6,4.2C2557.9,880.1,2561.6,880.1,2569.1,882.7z
			 M2582.6,894.7c-0.7,0.4-1.5,0.6-2.3,0.8c1.5,7.9,3.2,11.3,4.8,11.1c0,0,0.8-0.2,1.5-0.4c3.1-1.3,3.4-2.5,3.4-2.5
			C2588.6,904.3,2586,901.7,2582.6,894.7z M2585.6,892.3c-0.5,0.6-1.1,1.1-1.8,1.6c4.4,6.8,7.3,9.2,8.7,8.4c0,0,0.7-0.5,1.2-1
			c2.4-2.4,2.2-3.6,2.2-3.6C2594.8,898.9,2591.5,897.5,2585.6,892.3z M2587.5,889c-0.2,0.8-0.6,1.5-1,2.2c6.7,4.6,10.3,5.8,11.3,4.5
			c0,0,0.5-0.7,0.8-1.4c1.3-3.1,0.6-4.2,0.6-4.2C2598.6,891.6,2594.9,891.6,2587.5,889z M2569.4,890.2c-0.3-0.7-0.6-1.5-0.8-2.3
			c-8,1.5-11.3,3.2-11.1,4.8c0,0,0.2,0.8,0.4,1.5c1.3,3.1,2.5,3.4,2.5,3.4C2559.8,896.1,2562.4,893.6,2569.4,890.2z M2578.9,895.7
			c-0.2,0-0.4,0-0.7,0c-0.6,0-1.2-0.1-1.8-0.2c-1.7,7.9-1.4,11.6,0.2,12.1c0,0,0.8,0.2,1.6,0.2c3.4,0,4.1-1,4.1-1
			C2580.7,906.8,2579.3,903.5,2578.9,895.7z M2571.7,893.2c-0.6-0.5-1.1-1.1-1.6-1.8c-6.8,4.4-9.2,7.3-8.4,8.7c0,0,0.5,0.7,1,1.2
			c2.4,2.4,3.6,2.2,3.6,2.2C2565.2,902.4,2566.5,899.1,2571.7,893.2z M2572.9,894.2c-4.6,6.6-5.7,10.2-4.4,11.2c0,0,0.7,0.5,1.4,0.8
			c3.1,1.3,4.2,0.6,4.2,0.6c-1.5-0.6-1.5-4.2,1-11.6C2574.3,894.9,2573.5,894.6,2572.9,894.2z"/>
	</g>
</g>
</svg>
